<?xml version="1.0" standalone="no"?>
<!DOCTYPE svg PUBLIC "-//W3C//DTD SVG 20010904//EN"
 "http://www.w3.org/TR/2001/REC-SVG-20010904/DTD/svg10.dtd">
<svg version="1.0" xmlns="http://www.w3.org/2000/svg"
 viewBox="0 0 500.000000 500.000000"
 preserveAspectRatio="xMidYMid meet">
<g transform="translate(0.000000,500.000000) scale(0.100000,-0.100000)"
fill="white" stroke="none">
<path d="M2240 4969 c0 -5 -25 -9 -56 -9 -32 0 -53 -4 -49 -9 3 -6 -4 -15 -16
-21 -11 -7 -18 -14 -16 -17 3 -2 -1 -19 -8 -36 -11 -27 -11 -35 6 -66 10 -19
16 -37 14 -41 -16 -25 -28 -70 -26 -96 1 -18 -3 -35 -9 -39 -13 -8 -8 -154 14
-394 1 -14 7 -26 13 -28 6 -2 10 -15 7 -27 -2 -13 3 -29 11 -36 8 -7 15 -23
15 -37 0 -13 12 -45 26 -69 15 -25 28 -59 31 -77 8 -65 10 -71 21 -75 7 -2 10
-8 6 -13 -3 -5 0 -9 5 -9 6 0 11 -13 11 -30 0 -16 4 -30 8 -30 4 0 16 -13 25
-30 10 -16 16 -30 13 -30 -3 0 -1 -11 4 -24 6 -16 5 -26 -1 -28 -6 -2 -1 -14
10 -27 11 -12 17 -29 14 -37 -3 -8 2 -23 11 -32 8 -10 14 -28 11 -40 -2 -12
-1 -22 3 -22 4 0 9 -12 10 -26 1 -15 8 -34 15 -42 10 -13 9 -14 -3 -7 -8 4 -5
-2 8 -14 12 -12 22 -27 22 -34 0 -8 -4 -7 -11 3 -9 12 -9 11 -4 -5 4 -11 9
-29 12 -40 3 -11 7 -27 11 -35 9 -24 9 -34 0 -46 -5 -7 -8 -36 -8 -65 0 -107
-8 -181 -21 -192 -8 -8 -8 -5 1 8 14 18 14 19 -2 6 -10 -7 -16 -17 -13 -21 3
-5 1 -11 -5 -15 -5 -3 -10 -15 -10 -26 0 -11 4 -18 9 -15 10 6 9 -12 0 -29 -3
-5 -5 -26 -4 -45 0 -19 -3 -44 -9 -55 -5 -11 -11 -42 -13 -69 -1 -27 -11 -65
-21 -85 -17 -33 -18 -40 -6 -63 12 -22 12 -27 -1 -32 -8 -3 -15 -13 -15 -22 0
-9 -9 -27 -20 -41 -11 -14 -20 -35 -20 -47 0 -11 -7 -34 -15 -50 -9 -17 -17
-43 -19 -58 -2 -16 -14 -41 -27 -55 -13 -14 -17 -22 -9 -18 12 7 13 6 3 -6 -7
-9 -12 -31 -11 -50 0 -19 -4 -44 -10 -56 -7 -12 -12 -36 -12 -53 0 -21 -8 -38
-22 -50 -17 -13 -23 -29 -24 -64 -1 -25 -6 -51 -11 -58 -6 -7 -13 -32 -16 -56
-3 -28 -14 -52 -31 -69 -20 -20 -26 -36 -26 -72 -1 -25 -7 -57 -14 -70 -19
-34 -10 -454 10 -494 8 -15 17 -53 20 -85 3 -31 7 -61 7 -67 1 -5 10 -17 19
-26 10 -9 14 -19 10 -23 -4 -4 -1 -6 7 -4 7 2 15 -5 16 -15 4 -24 35 -58 46
-51 5 3 21 -3 36 -13 15 -9 29 -18 31 -19 1 0 4 -31 6 -67 3 -41 11 -79 23
-99 26 -45 116 -88 195 -94 33 -2 67 -9 74 -15 7 -6 18 -8 23 -5 10 7 44 -9
67 -30 7 -6 22 -33 33 -60 14 -32 41 -68 75 -98 39 -34 52 -53 50 -69 -5 -34
-30 -118 -47 -159 -8 -20 -13 -39 -9 -42 3 -3 1 -6 -5 -6 -5 0 -11 -20 -11
-45 -2 -36 2 -47 21 -59 23 -15 70 -18 61 -4 -3 4 -1 8 5 8 28 0 109 128 96
150 -4 6 -2 10 3 10 4 0 14 23 21 51 7 28 24 70 38 95 20 35 25 61 27 126 2
48 -2 96 -9 113 -6 17 -10 36 -7 44 2 8 0 11 -5 8 -6 -4 -9 7 -6 27 2 20 -2
40 -10 48 -12 11 -26 49 -33 83 -1 6 -3 12 -4 15 -1 3 -3 13 -5 22 -2 10 -10
25 -19 34 -9 8 -16 19 -16 24 0 5 -13 16 -29 25 -30 15 -36 26 -46 84 -7 40
-22 71 -35 71 -4 0 -2 14 6 30 9 17 22 30 30 30 8 0 13 3 12 8 -1 4 2 19 6 34
10 33 -23 93 -56 104 -27 8 -80 62 -68 69 4 3 15 2 23 -1 32 -12 106 48 101
82 -6 43 -12 56 -36 84 l-25 29 22 5 c24 6 55 68 51 101 -5 33 -39 95 -52 95
-7 0 -15 4 -18 9 -4 5 3 7 13 4 10 -3 31 3 45 12 14 10 26 14 26 9 0 -4 11 3
25 16 20 19 24 30 21 68 -3 36 -10 52 -34 73 l-31 28 28 9 c60 21 88 91 60
145 -19 36 -63 70 -89 69 -3 0 -11 6 -18 14 -7 8 -9 14 -5 14 4 0 1 5 -7 11
-11 8 -9 9 10 3 55 -16 89 -11 110 18 29 40 25 70 -15 111 -20 21 -39 37 -43
37 -5 0 -8 11 -8 24 0 18 5 23 21 21 12 -1 26 -5 32 -8 5 -3 22 5 39 19 16 14
22 22 14 18 -12 -6 -13 -4 -2 7 19 20 14 56 -10 73 -12 9 -18 16 -13 16 6 0 3
5 -5 11 -12 9 -12 10 4 5 10 -4 29 1 42 9 29 19 32 66 7 93 -28 29 -27 43 2
32 20 -8 27 -5 40 13 18 26 19 49 3 65 -7 7 -9 12 -5 12 4 0 -3 12 -17 27 -23
24 -27 51 -6 38 5 -3 17 6 26 20 13 19 15 39 11 79 -3 36 -1 63 8 80 15 28 16
66 2 66 -4 0 -5 5 -2 10 3 6 -1 13 -10 16 -13 5 -12 11 10 40 24 31 25 38 15
69 -6 18 -19 44 -29 57 -14 17 -16 29 -10 46 5 13 14 20 19 17 7 -4 9 3 4 22
-8 33 -29 71 -56 96 -18 17 -18 21 -4 43 27 40 23 52 -39 118 -28 30 -46 74
-24 61 14 -9 38 24 39 52 0 16 -14 33 -42 53 -24 16 -54 38 -67 49 -24 19 -24
19 -3 25 26 9 37 39 23 65 -11 19 -69 66 -83 66 -18 0 -17 15 1 25 23 12 27
46 8 71 -22 28 -62 43 -131 48 -6 1 3 15 19 31 28 29 29 32 14 58 -9 17 -25
28 -42 30 -18 2 -27 9 -27 21 0 9 -7 26 -15 37 -8 10 -15 27 -15 37 0 10 -7
20 -15 23 -8 4 -13 10 -10 14 3 4 -2 10 -10 14 -19 7 -20 50 -1 65 9 8 13 24
10 43 -2 18 2 38 8 45 14 17 19 63 7 63 -4 0 -6 6 -3 14 3 7 -10 26 -28 42
l-33 28 39 36 c39 36 39 37 21 63 -9 15 -21 24 -26 21 -5 -3 -9 -1 -9 4 0 10
-72 52 -91 52 -7 0 -25 12 -40 26 -22 21 -39 27 -79 29 -27 1 -50 -2 -50 -6z
m91 -29 c20 -11 26 -40 8 -40 -5 0 -7 4 -4 10 8 14 -39 23 -80 16 -37 -7 -46
-22 -17 -29 15 -4 15 -5 0 -6 -9 0 -20 4 -23 9 -6 9 -65 15 -65 6 0 -2 -3 -11
-6 -20 -3 -9 -1 -16 6 -16 6 0 8 5 5 10 -3 6 -2 10 4 10 5 0 15 -8 20 -17 6
-10 11 -12 11 -5 0 14 60 17 60 3 0 -6 -9 -8 -20 -6 -11 2 -20 -1 -20 -7 0 -7
-15 -9 -40 -5 -45 6 -53 -8 -20 -38 26 -24 73 -108 57 -103 -7 2 -19 18 -27
36 -8 17 -18 32 -21 32 -11 0 -19 -45 -9 -48 6 -2 10 -8 10 -14 0 -6 -7 -8
-15 -4 -10 4 -15 -1 -15 -14 0 -24 25 -27 34 -4 3 8 11 12 17 8 7 -4 -3 -18
-25 -35 -24 -20 -33 -35 -29 -46 4 -11 3 -14 -5 -9 -7 4 -12 1 -13 -6 0 -7 -2
-21 -4 -30 -5 -29 13 -31 48 -4 19 15 39 26 45 26 17 0 24 -18 11 -26 -8 -4
-9 -3 -5 4 10 17 -5 14 -29 -4 -20 -16 -19 -16 4 -9 21 6 23 5 18 -14 -4 -18
-2 -19 14 -10 10 5 19 12 19 15 0 3 -5 2 -12 -2 -6 -4 -8 -3 -5 3 7 12 47 24
47 15 0 -3 -10 -16 -22 -29 -25 -26 -53 -30 -65 -8 -8 13 -11 13 -31 -1 -17
-11 -21 -24 -20 -53 l1 -39 36 20 c20 11 42 25 49 30 8 7 12 7 12 0 0 -5 -7
-15 -15 -22 -20 -16 -19 -40 1 -40 10 0 14 6 11 14 -4 10 -1 13 9 9 11 -4 14
4 14 31 0 42 17 54 52 35 13 -7 29 -14 36 -15 8 -1 16 -5 19 -8 3 -3 13 2 21
11 12 12 17 12 20 3 3 -7 -2 -17 -9 -22 -11 -8 -10 -9 4 -4 9 3 25 9 35 12 14
5 15 4 2 -5 -12 -9 -10 -11 12 -11 15 0 30 5 34 12 4 7 3 8 -4 4 -7 -4 -12 -1
-12 7 0 8 -15 20 -32 26 -18 7 -50 23 -70 36 -44 29 -51 16 -11 -21 14 -13 23
-27 20 -31 -10 -10 -37 18 -56 56 -13 28 -22 35 -41 34 -22 -2 -23 -1 -8 8 10
5 26 9 35 7 24 -4 31 63 9 81 -21 18 -67 6 -60 -14 5 -11 2 -13 -11 -9 -15 6
-15 9 4 27 11 12 34 22 50 23 27 2 31 -2 37 -32 3 -19 10 -34 14 -34 5 0 6 10
2 22 -4 15 -2 19 7 13 8 -4 10 -17 6 -32 -6 -25 -5 -26 31 -20 24 4 44 1 60
-10 14 -9 24 -11 24 -5 0 6 -4 14 -10 17 -20 12 -10 24 13 16 12 -5 21 -16 19
-25 -2 -9 4 -16 12 -16 11 0 13 6 6 30 -12 43 -16 47 -57 55 -49 9 -109 43
-128 72 -18 27 -9 31 11 6 13 -17 14 -17 8 0 -3 9 -1 17 5 17 6 0 11 -4 11
-10 0 -5 5 -10 12 -10 9 0 9 3 0 12 -16 16 -15 31 1 23 6 -4 3 1 -8 10 -11 9
-30 14 -42 12 -12 -2 -20 0 -17 4 10 16 60 9 82 -11 18 -17 20 -24 10 -46 -8
-16 -17 -23 -27 -19 -13 5 -12 2 2 -12 15 -15 19 -16 27 -3 5 8 6 18 4 22 -3
4 2 5 10 2 10 -4 18 1 22 11 4 10 9 12 13 6 4 -6 12 -6 20 -1 12 7 12 14 2 38
-15 36 -48 52 -106 52 -25 0 -45 4 -45 9 0 5 25 8 55 6 42 -2 68 -11 106 -35
27 -18 48 -38 46 -44 -1 -6 -26 -23 -55 -37 -71 -35 -82 -46 -48 -53 14 -4 37
-8 51 -11 33 -7 72 -79 54 -101 -14 -17 -43 -18 -71 -3 -37 20 -28 3 17 -31
35 -26 42 -36 34 -47 -6 -7 -18 -13 -26 -13 -13 0 -13 -3 -3 -16 11 -12 10
-18 -6 -35 -19 -18 -22 -19 -69 -3 -28 9 -56 22 -64 28 -12 9 -13 7 -8 -7 4
-10 7 -22 7 -27 0 -5 11 -7 24 -4 14 2 31 -3 40 -12 9 -8 16 -12 16 -7 0 4 5
1 10 -7 8 -13 11 -12 23 4 14 19 15 19 46 -3 53 -38 39 -70 -18 -42 -20 10
-49 21 -64 25 -15 4 -26 10 -23 14 2 4 -10 8 -27 9 -31 2 -32 2 -12 -15 12 -9
24 -24 27 -33 8 -19 48 -32 49 -16 0 7 4 2 9 -10 5 -13 18 -23 29 -23 11 0 23
-5 26 -10 7 -11 42 -9 63 3 7 5 12 4 12 -3 0 -6 -11 -16 -25 -22 -22 -10 -33
-8 -72 11 -55 27 -67 22 -19 -9 30 -18 121 -39 174 -40 6 0 12 -9 12 -20 0
-26 -47 -49 -104 -52 -25 0 -46 -4 -46 -8 0 -9 110 -37 177 -45 60 -8 97 -37
72 -58 -15 -14 -133 -11 -124 3 2 4 -6 8 -20 8 -14 0 -22 -4 -19 -9 3 -5 12
-9 20 -9 8 0 14 -3 14 -7 0 -5 21 -17 47 -28 111 -47 148 -70 151 -93 4 -29
-18 -37 -66 -25 -20 5 -50 6 -66 2 -40 -11 -63 7 -41 31 9 10 14 30 12 46 -3
23 -11 32 -43 42 -29 10 -47 11 -67 3 -26 -9 -27 -8 -15 6 11 15 11 16 -4 10
-22 -8 -23 6 -3 23 12 10 15 10 15 -4 0 -9 5 -16 11 -16 6 0 8 9 4 23 -5 18
-4 19 5 7 9 -13 11 -12 8 4 -4 26 -35 29 -60 4 -11 -11 -23 -17 -26 -13 -11
11 38 45 64 45 14 0 27 -7 30 -15 4 -9 15 -13 29 -11 13 3 26 -1 28 -7 2 -6
15 -12 30 -12 14 -1 24 2 21 6 -2 4 -13 6 -24 4 -12 -2 -18 0 -15 5 3 5 17 7
30 4 14 -2 25 0 25 6 0 8 -46 15 -73 11 -4 -1 -30 6 -57 15 -39 13 -53 14 -64
5 -10 -8 -16 -9 -21 -1 -3 6 -10 8 -15 5 -13 -8 -40 6 -40 20 0 20 14 25 30
13 12 -8 12 -9 -3 -4 -11 3 -16 2 -12 -4 11 -18 35 -11 35 10 0 13 -7 20 -19
20 -10 0 -22 7 -25 16 -6 15 -4 15 11 3 17 -12 17 -12 2 5 -11 12 -24 16 -38
11 -16 -5 -19 -12 -14 -36 4 -24 2 -29 -13 -29 -15 0 -16 2 -5 9 10 6 11 13 2
29 -9 17 -8 23 6 31 17 10 17 12 0 25 -10 8 -27 12 -37 9 -11 -3 -20 0 -20 6
0 6 -7 11 -15 11 -8 0 -15 7 -15 15 0 18 -1 18 44 0 28 -12 36 -12 36 -3 0 7
9 0 20 -17 11 -16 20 -26 20 -22 0 5 7 1 16 -8 12 -12 19 -13 24 -5 6 9 9 9
15 0 4 -6 4 -14 1 -17 -8 -9 14 -33 30 -33 8 0 11 7 7 18 -5 15 -4 14 9 -2 10
-12 17 -15 22 -8 3 6 2 13 -4 17 -5 3 -10 12 -10 18 1 7 9 2 19 -10 14 -17 21
-19 31 -10 10 9 11 9 6 0 -4 -7 -2 -13 4 -13 6 0 13 6 16 14 3 8 12 12 20 9 8
-3 14 -1 14 4 0 5 -15 10 -32 11 -90 6 -148 33 -201 91 -28 31 -37 37 -38 24
-1 -10 -4 -4 -8 12 -5 24 -12 30 -31 30 -16 0 -25 -6 -25 -15 0 -8 -8 -24 -17
-34 -10 -11 -18 -23 -18 -28 0 -4 -12 -8 -26 -8 -17 0 -28 6 -31 20 -5 20 -6
20 -35 -1 -26 -19 -29 -25 -24 -66 3 -25 7 -48 10 -51 9 -8 56 39 56 55 0 8
-10 2 -24 -13 l-23 -28 1 24 c1 14 -2 31 -7 38 -7 9 -3 12 12 12 19 0 20 -3
11 -20 -6 -11 -7 -20 -1 -20 5 0 11 7 15 15 3 8 12 15 20 15 10 0 13 -6 9 -16
-5 -14 -3 -15 15 -5 12 7 22 17 22 24 0 7 4 6 10 -3 5 -9 5 -19 0 -24 -5 -5
-5 -19 1 -33 5 -13 6 -22 1 -20 -4 3 -14 -2 -22 -11 -13 -14 -12 -15 4 -9 10
4 21 7 26 7 4 0 11 11 14 25 4 14 10 25 15 25 22 0 -15 -59 -47 -74 -18 -9
-31 -12 -27 -6 3 5 1 10 -4 10 -18 0 -12 24 9 38 11 7 20 18 20 24 0 9 -3 9
-12 0 -16 -16 -31 -15 -22 1 5 7 1 7 -12 -3 -29 -22 -30 -24 -10 -16 16 6 17
4 6 -9 -7 -9 -19 -14 -26 -11 -7 3 -16 1 -19 -5 -4 -5 -2 -8 3 -7 12 4 14 -6
5 -27 -10 -27 5 -29 74 -13 71 17 83 16 83 -7 0 -13 -83 -45 -116 -45 -21 0
-28 -22 -12 -34 8 -6 18 -21 22 -34 4 -12 15 -22 26 -22 31 0 121 39 152 66
46 38 56 28 12 -11 -25 -23 -63 -42 -107 -56 -38 -11 -66 -23 -63 -26 3 -3 18
-1 33 5 15 6 47 14 70 17 23 4 53 14 65 24 13 9 30 17 38 16 8 0 18 4 22 10 5
6 8 6 8 -2 0 -23 2 -28 13 -43 9 -12 9 -13 -3 -2 -8 6 -20 12 -28 12 -8 0 -10
-5 -6 -12 4 -7 4 -10 -1 -6 -4 4 -15 2 -24 -4 -10 -8 -9 -4 3 10 11 12 14 22
9 22 -6 0 -16 -6 -22 -14 -6 -7 -39 -19 -74 -26 -34 -6 -72 -18 -84 -26 -21
-13 -22 -15 -6 -34 9 -11 19 -17 21 -15 3 3 0 11 -7 19 -9 10 -8 15 2 19 10 4
14 -3 15 -24 0 -16 -4 -29 -9 -29 -5 0 -9 -4 -9 -10 0 -15 46 -12 87 5 21 9
52 16 71 17 30 1 33 4 29 25 -5 26 16 48 38 40 8 -4 17 -2 20 2 2 5 14 11 25
14 16 4 18 2 10 -13 -16 -30 -11 -35 10 -10 11 13 20 27 20 32 0 4 15 7 33 7
19 -1 24 -3 11 -6 -11 -2 -28 -17 -38 -33 -9 -17 -20 -30 -24 -31 -4 0 -15 -2
-25 -4 -10 -2 -23 5 -30 16 -19 31 -41 24 -34 -11 4 -16 2 -32 -4 -36 -6 -4
-4 -14 8 -27 l18 -22 -23 19 c-16 14 -26 16 -33 9 -8 -8 -1 -18 25 -35 20 -12
36 -29 36 -37 0 -11 -4 -9 -15 5 -13 18 -14 18 -8 -5 4 -17 3 -22 -6 -17 -7 4
-11 15 -9 24 2 10 -7 25 -19 35 -22 17 -25 17 -83 1 -45 -12 -60 -21 -60 -35
0 -10 9 -21 20 -24 13 -4 20 -15 20 -31 0 -30 0 -30 94 1 42 14 84 25 92 25
10 0 13 6 10 18 -14 43 63 69 88 30 15 -25 -18 -58 -59 -58 -18 0 -44 -9 -57
-20 -14 -10 -52 -29 -84 -41 -76 -28 -91 -41 -68 -60 15 -12 17 -12 9 0 -5 10
-4 12 4 7 6 -4 10 -19 9 -34 -4 -34 20 -39 78 -17 l44 17 -17 31 c-8 18 -21
36 -27 40 -7 6 -6 7 4 5 8 -3 22 -18 30 -35 14 -30 16 -31 40 -18 14 8 33 14
42 15 12 0 16 8 15 27 -2 22 3 29 20 31 27 4 65 -32 57 -53 -4 -9 -9 -13 -12
-10 -10 10 -42 -55 -35 -72 5 -17 5 -17 -8 -1 -13 16 -19 16 -108 -7 -98 -25
-118 -35 -106 -56 6 -9 11 -8 21 5 12 17 13 16 24 -3 6 -12 15 -21 20 -21 16
0 11 22 -7 35 -15 11 -14 12 11 13 20 0 26 -4 22 -15 -3 -8 -6 -24 -6 -35 0
-13 -5 -18 -14 -15 -8 3 -17 1 -20 -6 -2 -7 -5 -2 -5 10 -1 12 -6 25 -12 29
-9 5 -10 -1 -5 -20 4 -18 3 -25 -4 -21 -5 3 -10 0 -10 -8 0 -8 9 -17 21 -20
27 -7 249 74 249 90 0 20 50 28 67 10 20 -19 8 -64 -12 -47 -9 8 -15 8 -20 0
-3 -6 -24 -19 -46 -30 -21 -11 -39 -25 -39 -31 0 -6 5 -7 10 -4 6 3 10 2 10
-4 0 -19 -19 -21 -25 -2 -6 19 -8 19 -91 -3 -46 -13 -87 -26 -91 -30 -4 -4 -2
-16 5 -27 7 -11 10 -24 7 -28 -2 -5 1 -14 9 -20 23 -19 228 32 261 65 25 25
27 25 50 10 21 -14 25 -14 25 -2 0 8 -4 18 -10 21 -15 9 -12 22 6 29 15 6 16
0 11 -46 -4 -28 -12 -56 -18 -62 -8 -8 -9 -5 -4 14 5 20 4 22 -5 10 -10 -13
-11 -12 -6 3 9 29 -24 34 -46 8 -21 -26 -24 -55 -5 -48 6 2 12 10 12 18 0 25
30 15 33 -11 2 -17 0 -21 -6 -12 -7 11 -11 8 -16 -10 -4 -17 -8 -19 -14 -10
-7 10 -15 10 -36 3 -14 -6 -72 -15 -127 -20 -56 -5 -102 -11 -104 -13 -1 -2
-5 -17 -8 -35 -6 -28 -3 -32 25 -42 17 -6 64 -11 104 -11 64 0 74 2 75 18 0
15 1 15 8 -2 7 -18 8 -18 14 -2 4 10 4 23 0 28 -3 7 -1 8 5 4 7 -4 12 -14 12
-22 0 -8 5 -14 12 -14 9 0 9 -3 0 -12 -14 -14 -177 -17 -224 -5 -21 6 -28 4
-28 -7 0 -11 20 -16 78 -22 157 -15 185 -9 198 42 12 50 36 64 72 44 30 -17
40 -53 22 -76 -15 -17 -4 -18 38 -3 l32 11 -25 32 c-14 18 -25 44 -26 57 0 13
-3 18 -6 12 -6 -17 -23 -16 -23 1 0 7 9 16 20 19 16 4 20 0 20 -19 0 -32 15
-30 52 6 25 25 28 33 18 45 -18 22 -73 18 -105 -7 -18 -14 -26 -17 -23 -7 2 8
19 21 36 30 28 14 30 18 17 29 -17 14 -20 56 -5 65 6 3 10 16 9 28 0 18 -3 16
-15 -10 -17 -40 -24 -42 -24 -8 0 17 8 29 25 37 14 6 28 9 31 6 11 -12 11 -43
0 -51 -7 -5 -3 -14 14 -28 l25 -21 3 33 c2 20 -2 37 -10 44 -8 5 -17 18 -21
28 -3 9 -14 17 -24 17 -27 0 -103 -32 -103 -43 0 -11 -51 -57 -63 -57 -5 0 -5
-5 -1 -11 4 -7 -1 -7 -16 1 -20 11 -20 12 -4 24 18 14 11 41 -8 30 -7 -4 -8
-2 -4 5 4 6 12 9 17 6 5 -4 9 -1 9 5 0 6 5 8 11 4 8 -5 8 -9 -1 -14 -8 -5 -7
-9 5 -13 9 -4 14 -3 11 1 -2 4 0 14 5 22 8 13 10 13 19 0 7 -10 10 -11 10 -2
0 7 20 22 45 34 l45 22 -28 27 c-15 15 -44 30 -64 34 -29 6 -35 10 -30 27 4
15 7 17 13 6 7 -10 9 -8 9 7 0 15 3 16 12 7 16 -16 28 -15 28 3 0 18 20 20 21
3 1 -7 5 -2 9 12 8 24 8 24 9 3 1 -13 -8 -27 -20 -33 -11 -7 -18 -14 -16 -17
3 -2 15 0 26 7 15 7 21 20 21 44 0 48 -24 54 -74 18 -48 -34 -76 -45 -76 -32
0 6 5 10 12 10 14 0 78 42 78 52 0 10 -82 35 -108 33 -18 -1 -21 2 -16 18 3
11 2 17 -3 14 -5 -3 -10 3 -10 14 -1 10 2 19 7 19 4 0 6 8 3 18 -2 10 3 25 13
33 16 13 17 12 11 -16 -7 -28 -6 -29 8 -11 8 11 15 24 15 29 0 4 4 6 9 2 5 -3
12 -1 15 4 3 5 -8 14 -26 20 -17 6 -28 14 -25 17 13 14 221 -106 231 -133 11
-27 -10 -38 -47 -26 -56 20 -96 25 -114 15 -15 -9 -12 -12 21 -26 21 -9 44
-16 50 -16 12 0 136 -136 136 -149 0 -5 -6 -13 -13 -19 -10 -8 -24 -4 -58 18
-24 17 -53 30 -64 30 -17 -1 -15 -5 15 -30 19 -17 39 -30 46 -30 6 0 19 -9 29
-20 10 -11 15 -20 12 -20 -4 0 11 -18 34 -41 72 -72 29 -122 -51 -59 -41 33
-51 30 -25 -7 8 -12 27 -24 43 -28 30 -7 78 -73 88 -121 4 -22 0 -32 -15 -41
-16 -10 -26 -8 -61 18 -23 17 -44 28 -48 25 -3 -3 22 -35 56 -70 34 -35 62
-73 62 -83 -1 -21 -23 -53 -38 -53 -5 0 -1 -17 9 -37 23 -45 24 -63 5 -89 -13
-17 -18 -17 -37 -6 -39 24 -44 -2 -10 -52 17 -25 36 -48 41 -51 13 -8 13 -65
0 -65 -6 0 -24 7 -40 15 -24 13 -33 13 -50 3 -27 -17 -26 -23 15 -54 49 -37
61 -62 42 -81 -12 -12 -22 -13 -45 -5 -29 10 -31 9 -41 -19 -9 -27 -8 -31 13
-39 36 -13 57 -49 45 -73 -10 -17 -18 -19 -65 -13 l-53 6 3 -45 c2 -39 7 -49
34 -65 44 -27 66 -63 53 -88 -15 -28 -39 -34 -77 -22 -43 14 -74 -1 -74 -35 0
-14 0 -28 0 -32 -1 -4 20 -12 47 -19 61 -15 93 -51 93 -104 0 -29 -6 -43 -22
-54 -32 -23 -75 -20 -102 7 l-24 24 -16 -37 c-23 -53 -21 -57 29 -57 62 0 107
-41 103 -93 -3 -29 -9 -38 -40 -53 -38 -18 -38 -18 -92 6 l-54 25 -21 -29
c-12 -15 -21 -30 -21 -33 0 -2 25 -12 56 -21 73 -21 114 -60 114 -109 0 -38
-19 -63 -56 -72 -33 -8 -83 2 -106 23 -17 15 -18 14 -18 -14 0 -38 13 -49 70
-58 77 -13 106 -41 94 -91 -8 -32 -56 -54 -117 -54 -52 0 -56 -3 -49 -35 3
-18 11 -25 29 -25 13 0 36 -12 51 -27 15 -15 41 -34 57 -43 22 -11 31 -23 33
-47 5 -53 -71 -106 -129 -88 -15 5 -20 3 -17 -6 3 -8 23 -17 46 -22 50 -10 77
-41 86 -99 5 -33 16 -52 50 -83 36 -33 48 -54 65 -113 12 -39 26 -74 31 -77 6
-3 10 -24 10 -46 0 -22 7 -56 15 -76 23 -55 13 -180 -19 -240 -14 -27 -34 -80
-45 -119 -23 -78 -85 -174 -113 -174 -36 0 -38 33 -7 121 67 189 67 195 -6
263 -30 29 -63 71 -74 96 -36 81 -71 103 -209 125 -97 16 -172 49 -189 85 -7
14 -13 57 -13 96 l0 71 -37 16 c-21 9 -47 17 -58 19 -11 2 -21 12 -23 23 -2
11 -17 37 -34 58 -26 33 -30 45 -25 80 4 29 0 51 -14 78 -10 21 -19 53 -19 71
1 18 -1 93 -4 166 -2 73 0 134 4 137 4 3 3 23 -3 46 -8 34 -7 46 7 69 9 16 16
48 16 73 0 28 7 53 19 68 22 29 36 67 32 92 -1 9 7 29 19 44 15 19 19 35 15
54 -5 22 0 36 21 62 26 34 31 54 37 160 2 33 8 53 20 62 9 7 17 17 17 24 0 6
5 11 10 11 6 0 8 11 4 25 -4 16 0 35 12 53 10 15 17 39 16 54 -2 17 5 32 18
41 12 8 22 25 23 38 0 13 9 30 19 37 17 12 17 15 2 43 -14 28 -14 32 1 49 16
17 26 67 25 119 0 13 4 29 10 36 5 6 11 48 14 92 2 54 9 88 21 106 13 20 16
40 12 72 -3 35 -1 48 12 58 17 12 21 40 8 53 -10 10 -9 72 2 78 10 7 9 25 -2
43 -4 6 -9 35 -12 64 -3 35 -10 56 -20 62 -11 6 -15 17 -11 32 4 14 0 28 -10
36 -10 8 -13 21 -9 37 4 16 0 31 -10 43 -10 10 -14 22 -11 28 4 6 -3 20 -14
31 -17 17 -19 24 -10 35 8 10 8 19 1 34 -6 11 -11 29 -11 40 0 12 -4 21 -9 21
-20 0 -41 32 -35 54 4 16 0 25 -10 29 -9 4 -16 17 -16 31 0 14 -4 28 -10 31
-5 3 -10 19 -10 36 0 30 -11 54 -42 98 -10 13 -15 28 -12 33 3 5 -2 20 -11 34
-9 14 -14 31 -12 39 3 7 -1 22 -9 34 -15 21 -23 74 -29 211 -3 56 -1 78 11 91
13 15 13 17 -6 22 -26 7 -27 51 -2 92 13 20 16 35 10 45 -7 10 -3 32 10 67
l19 51 -21 21 c-18 18 -19 24 -8 42 7 11 10 24 7 29 -10 16 27 40 63 40 20 0
44 5 52 10 20 13 66 13 91 0z m-35 -68 c-2 -8 -10 -18 -19 -24 -15 -8 -16 -6
-8 15 7 17 6 28 -2 37 -9 9 -7 9 9 -1 12 -7 21 -19 20 -27z m-120 -41 c5 -6
29 -11 53 -13 29 -2 46 -8 49 -18 5 -13 3 -13 -11 -2 -10 9 -27 11 -45 7 -21
-4 -35 0 -53 14 -13 11 -19 20 -13 21 5 0 14 -4 20 -9z m284 -23 c0 -6 -6 -6
-14 1 -11 10 -17 8 -25 -6 -6 -10 -11 -13 -11 -5 0 22 23 41 38 30 6 -6 12
-15 12 -20z m-179 -38 c19 0 8 -16 -13 -17 -11 -1 -25 -8 -29 -15 -6 -9 -10
-8 -15 6 -8 20 13 39 34 31 8 -3 18 -5 23 -5z m98 -112 c1 -5 -3 -8 -9 -8 -5
0 -10 12 -9 28 0 24 1 25 9 7 5 -11 9 -23 9 -27z m51 11 c0 -5 -10 -9 -21 -9
-18 0 -19 2 -9 15 12 15 30 12 30 -6z m-224 -14 c-15 -11 -17 -18 -9 -26 8 -8
17 -6 34 10 20 18 39 27 39 18 0 -2 -14 -13 -30 -26 -20 -14 -38 -20 -50 -16
-25 8 -26 31 -2 44 26 16 40 12 18 -4z m-46 -52 c0 -9 -3 -13 -7 -10 -3 4 -12
-1 -19 -11 -10 -12 -13 -13 -14 -3 0 8 8 20 18 27 22 17 22 17 22 -3z m4 -120
c-19 -14 -34 -9 -34 12 0 18 22 25 38 12 11 -9 11 -13 -4 -24z m241 -93 c3 -5
-1 -10 -10 -10 -9 0 -13 5 -10 10 3 6 8 10 10 10 2 0 7 -4 10 -10z m-85 -31
c0 -5 -4 -9 -8 -9 -5 0 -9 7 -9 15 0 8 4 12 9 9 4 -3 8 -9 8 -15z m210 -6 c0
-6 -4 -15 -10 -18 -5 -3 -10 -1 -10 5 0 6 -4 9 -9 6 -10 -7 -41 3 -41 13 0 3
16 6 35 6 20 0 35 -5 35 -12z m-194 -122 c0 -20 -5 -27 -14 -23 -10 3 -11 7
-2 12 6 4 11 10 11 14 -2 14 -1 26 3 26 2 0 3 -13 2 -29z m144 -1 c0 -5 -2
-10 -4 -10 -3 0 -8 5 -11 10 -3 6 -1 10 4 10 6 0 11 -4 11 -10z m-270 -43 c0
-7 -9 -13 -21 -14 -17 -2 -18 1 -9 13 15 17 30 18 30 1z m184 -44 c4 -9 -1
-17 -14 -20 -11 -3 -17 -10 -13 -16 3 -6 1 -7 -6 -3 -6 4 -9 11 -6 16 3 5 1
11 -5 15 -17 11 -11 20 14 21 14 1 27 -5 30 -13z m-90 -35 c-6 -22 -6 -22 14
2 18 21 21 22 22 7 0 -10 -7 -26 -16 -35 -15 -14 -18 -14 -36 9 l-19 24 6 -24
c5 -16 4 -21 -4 -17 -6 4 -11 1 -12 -6 0 -7 -4 -4 -9 7 -5 11 -9 14 -9 7 -1
-10 -6 -10 -22 -1 -17 9 -19 13 -8 19 7 5 16 7 20 4 4 -2 20 3 35 11 39 20 47
19 38 -7z m326 -113 c0 -8 -9 -24 -20 -35 -11 -11 -17 -20 -14 -20 4 0 1 -7
-6 -15 -7 -8 -17 -12 -22 -9 -6 4 -6 9 -1 13 5 3 19 23 32 44 25 40 31 45 31
22z m-310 -10 c-6 -8 -9 -23 -6 -33 4 -12 1 -19 -6 -19 -7 0 -13 13 -14 28 -1
16 2 26 7 24 4 -3 10 -1 14 5 3 5 9 10 12 10 3 0 0 -7 -7 -15z m104 -12 c3 -7
2 -11 -3 -8 -5 3 -12 1 -16 -5 -3 -5 -16 -10 -28 -10 -17 0 -19 2 -7 9 8 6 18
7 24 4 5 -3 6 -1 2 6 -4 6 -16 9 -27 6 -11 -4 -19 -2 -19 5 0 6 4 9 9 5 5 -3
12 -1 15 4 8 13 43 2 50 -16z m59 -13 c3 -11 1 -18 -4 -14 -5 3 -9 12 -9 20 0
20 7 17 13 -6z m59 -34 c3 2 8 -2 12 -11 4 -11 2 -15 -6 -13 -7 3 -22 -7 -35
-21 l-23 -26 5 30 c2 16 9 31 15 33 5 2 7 9 3 15 -5 8 -2 8 9 0 8 -7 17 -10
20 -7z m78 -22 c0 -8 -19 -13 -24 -6 -3 5 1 9 9 9 8 0 15 -2 15 -3z m-180 -79
c0 -5 -9 1 -20 15 -11 14 -20 30 -20 35 0 6 9 -1 20 -15 11 -14 20 -29 20 -35z
m-60 19 c-3 -5 -9 -8 -13 -6 -5 1 -6 -6 -3 -16 4 -11 0 -24 -9 -32 -12 -10
-15 -10 -15 3 0 9 -9 22 -21 30 -20 15 -20 15 8 24 33 12 60 10 53 -3z m40
-35 c0 -6 -4 -8 -9 -5 -5 4 -11 1 -13 -6 -3 -8 -6 -7 -10 3 -4 10 1 15 13 16
10 1 19 -3 19 -8z m130 -80 c0 -18 -10 -8 -25 24 l-16 32 21 -24 c11 -13 20
-27 20 -32z m-40 21 c0 -5 -2 -10 -4 -10 -3 0 -8 5 -11 10 -3 6 -1 10 4 10 6
0 11 -4 11 -10z m-25 -10 c3 -5 1 -10 -4 -10 -6 0 -11 5 -11 10 0 6 2 10 4 10
3 0 8 -4 11 -10z m38 -39 c-4 -4 -11 -10 -14 -14 -4 -4 -9 -1 -13 8 -4 11 -2
14 6 9 8 -5 9 -2 4 11 -5 15 -4 16 9 5 9 -7 12 -16 8 -19z m-115 -6 c-3 -3 -9
2 -12 12 -6 14 -5 15 5 6 7 -7 10 -15 7 -18z m2 -48 c0 -15 -3 -17 -13 -8 -8
6 -18 7 -23 3 -4 -4 -2 1 5 11 12 15 11 21 -5 40 -17 19 -16 19 9 -2 15 -14
27 -33 27 -44z m37 9 c-13 -15 -27 -12 -27 5 0 6 5 7 10 4 6 -3 10 -1 10 5 0
6 4 8 10 5 6 -4 5 -11 -3 -19z m209 -3 c-3 -4 3 -12 14 -18 20 -11 20 -12 -15
-43 l-35 -32 6 37 c6 36 19 63 32 63 3 0 2 -3 -2 -7z m-66 -62 c5 -11 10 -26
9 -33 0 -7 -4 -3 -9 9 -6 15 -15 21 -25 17 -15 -6 -21 7 -8 19 11 12 22 8 33
-12z m-49 -18 c7 -18 6 -30 -1 -37 -7 -7 -10 -2 -10 15 0 14 -5 30 -12 37 -9
9 -9 12 0 12 7 0 17 -12 23 -27z m36 -25 c-3 -8 -6 -5 -6 6 -1 11 2 17 5 13 3
-3 4 -12 1 -19z m-67 -18 c0 -24 -15 -27 -24 -4 -3 8 -2 12 4 9 6 -3 10 -1 10
4 0 6 2 11 5 11 3 0 5 -9 5 -20z m387 -92 c-3 -7 -5 -2 -5 12 0 14 2 19 5 13
2 -7 2 -19 0 -25z m-287 -10 c27 -29 25 -33 -10 -34 -20 -1 -30 3 -30 13 0 10
-6 13 -17 9 -11 -4 -8 2 7 14 31 24 25 24 50 -2z m-70 -40 c0 -13 -18 -9 -23
5 -3 6 -6 3 -7 -8 l-1 -20 -9 20 c-8 18 -9 18 -10 -5 -1 -23 -2 -23 -10 -5 -7
17 -9 17 -9 3 -1 -15 -21 -28 -21 -14 0 13 48 55 55 48 5 -4 5 2 1 13 -5 16
-2 15 14 -5 11 -14 20 -28 20 -32z m276 16 c-4 -9 -9 -15 -11 -12 -3 3 -3 13
1 22 4 9 9 15 11 12 3 -3 3 -13 -1 -22z m-169 -6 c-3 -8 -6 -5 -6 6 -1 11 2
17 5 13 3 -3 4 -12 1 -19z m253 -52 c0 -2 3 -12 6 -20 4 -12 2 -15 -9 -11 -9
4 -17 -2 -22 -17 l-8 -23 -4 22 c-2 12 2 29 9 37 12 14 28 21 28 12z m-193
-48 c-3 -8 -6 -5 -6 6 -1 11 2 17 5 13 3 -3 4 -12 1 -19z m66 8 c4 -11 1 -13
-10 -9 -12 5 -14 3 -8 -8 6 -11 5 -11 -5 -2 -7 6 -9 16 -6 22 10 15 23 14 29
-3z m-103 -28 c0 -5 -4 -8 -10 -8 -5 0 -10 10 -10 23 0 18 2 19 10 7 5 -8 10
-18 10 -22z m17 10 c-3 -8 -6 -5 -6 6 -1 11 2 17 5 13 3 -3 4 -12 1 -19z m-49
-19 c-3 -8 -7 -3 -11 10 -4 17 -3 21 5 13 5 -5 8 -16 6 -23z m-143 3 c3 -7 1
-21 -5 -30 -8 -15 -9 -15 -10 4 0 11 -5 25 -10 30 -7 7 -6 11 4 11 8 0 18 -7
21 -15z m45 10 c0 -4 -9 -8 -20 -9 -11 -1 -20 2 -20 8 0 5 9 9 20 9 11 0 20
-4 20 -8z m17 -24 c-3 -7 -5 -2 -5 12 0 14 2 19 5 13 2 -7 2 -19 0 -25z m37
-3 c3 -12 4 -9 2 8 -2 15 1 27 5 27 10 0 12 -44 2 -53 -10 -11 -33 14 -33 36
0 24 15 13 24 -18z m142 23 c4 -6 3 -8 -3 -5 -6 4 -14 0 -17 -9 -4 -9 -9 -14
-13 -11 -3 4 0 13 7 22 15 18 17 18 26 3z m-191 -38 c3 -6 -1 -7 -9 -4 -18 7
-21 14 -7 14 6 0 13 -4 16 -10z m155 -1446 c0 -8 -19 -13 -24 -6 -3 5 1 9 9 9
8 0 15 -2 15 -3z"/>
<path d="M2477 4825 c3 -8 9 -12 14 -9 12 7 11 11 -5 17 -10 4 -13 1 -9 -8z"/>
<path d="M2320 4639 c1 -8 7 -25 15 -39 11 -20 14 -21 15 -7 0 10 5 15 11 12
6 -4 8 -13 6 -19 -3 -7 3 -18 13 -24 14 -9 19 -8 24 4 3 9 1 12 -4 9 -6 -3
-10 -1 -10 4 0 16 22 13 49 -6 17 -11 22 -12 19 -3 -2 7 -19 21 -37 31 -20 10
-27 19 -19 22 7 2 0 3 -16 1 -18 -3 -36 2 -48 12 -14 14 -18 14 -18 3z"/>
<path d="M2425 4560 c-3 -6 1 -13 10 -16 21 -9 26 -2 10 13 -9 8 -16 9 -20 3z"/>
<path d="M2470 4550 c0 -5 5 -10 11 -10 5 0 7 5 4 10 -3 6 -8 10 -11 10 -2 0
-4 -4 -4 -10z"/>
<path d="M2260 4481 c0 -20 -9 -36 -26 -50 -33 -26 -50 -26 -63 -3 -9 16 -11
16 -32 -4 l-21 -22 23 -13 c34 -19 50 -17 78 8 13 13 29 23 35 23 6 0 -2 -12
-17 -26 -17 -14 -27 -31 -23 -39 8 -21 28 -19 24 2 -2 10 3 18 12 18 8 0 17
11 20 25 4 16 14 26 28 28 26 4 29 28 6 60 -22 32 -44 28 -44 -7z m-85 -79 c0
-18 -20 -15 -23 4 -3 10 1 15 10 12 7 -3 13 -10 13 -16z"/>
<path d="M2450 4427 c0 -16 47 -40 54 -28 3 4 -8 15 -25 25 -23 14 -29 14 -29
3z"/>
<path d="M2120 4366 c0 -9 7 -16 16 -16 9 0 14 5 12 12 -6 18 -28 21 -28 4z"/>
<path d="M2243 4162 c-35 -8 -63 -19 -63 -24 0 -5 8 -7 18 -4 9 3 38 10 65 17
26 6 47 15 47 20 0 5 -1 8 -2 8 -2 -1 -31 -8 -65 -17z"/>
<path d="M2470 4159 c0 -5 5 -7 10 -4 6 3 10 8 10 11 0 2 -4 4 -10 4 -5 0 -10
-5 -10 -11z"/>
<path d="M2694 4111 c4 -5 0 -12 -6 -14 -8 -3 -6 -6 5 -6 9 -1 17 6 17 14 0 8
-5 15 -11 15 -5 0 -8 -4 -5 -9z"/>
<path d="M2653 3989 c-1 -37 9 -50 22 -29 3 6 2 10 -4 10 -6 0 -8 7 -5 15 7
18 26 20 23 3 -3 -25 1 -38 12 -38 6 0 8 9 3 22 -6 20 -5 21 9 10 9 -8 21 -10
28 -6 7 4 10 2 7 -7 -3 -8 -12 -12 -19 -11 -8 2 -10 0 -6 -4 14 -14 36 -12 42
3 7 20 9 18 -55 46 l-55 24 -2 -38z"/>
<path d="M2505 3991 c-3 -5 -1 -12 5 -16 5 -3 10 1 10 9 0 18 -6 21 -15 7z"/>
<path d="M2770 3950 c0 -5 5 -10 11 -10 5 0 7 5 4 10 -3 6 -8 10 -11 10 -2 0
-4 -4 -4 -10z"/>
<path d="M2352 3903 c-40 -14 -71 -27 -69 -30 8 -8 147 37 147 47 0 6 -1 10
-2 9 -2 0 -36 -12 -76 -26z"/>
<path d="M2553 3859 c-15 -15 -4 -49 16 -49 27 0 42 20 30 42 -11 20 -30 23
-46 7z"/>
<path d="M2687 3847 c-12 -13 -30 -28 -40 -34 -16 -9 -17 -11 -3 -22 13 -11
16 -11 16 3 0 10 5 14 10 11 6 -4 8 -10 5 -15 -3 -5 -2 -11 3 -14 4 -2 14 9
21 25 14 33 36 40 26 9 -6 -20 9 -28 19 -11 10 16 -6 71 -21 71 -8 0 -24 -11
-36 -23z"/>
<path d="M2780 3830 c0 -5 5 -10 10 -10 6 0 10 -5 10 -12 0 -6 -9 -3 -20 7
-18 16 -20 16 -20 2 0 -17 42 -33 58 -23 5 3 15 -1 22 -9 14 -16 30 -20 30 -6
0 9 -71 61 -83 61 -4 0 -7 -4 -7 -10z"/>
<path d="M2420 3770 c-25 -11 -56 -19 -69 -19 -16 -1 -22 -4 -15 -11 9 -9 123
26 140 43 11 11 -7 7 -56 -13z"/>
<path d="M2584 3729 c-7 -13 15 -41 27 -33 5 3 6 -3 3 -13 -5 -13 -2 -12 10 5
10 12 15 26 12 31 -9 13 -45 20 -52 10z"/>
<path d="M2510 3649 c-41 -21 -88 -39 -103 -39 -16 0 -26 -4 -23 -9 6 -10 25
-6 149 30 41 12 67 25 67 34 0 26 -15 23 -90 -16z"/>
<path d="M2827 3639 c-3 -11 -4 -19 -1 -16 3 2 19 -9 37 -25 18 -18 33 -25 35
-18 5 13 -27 52 -38 45 -4 -3 -7 3 -6 12 2 24 -21 27 -27 2z"/>
<path d="M2740 3620 c0 -5 5 -10 10 -10 6 0 10 5 10 10 0 6 -4 10 -10 10 -5 0
-10 -4 -10 -10z"/>
<path d="M2693 3573 c-7 -2 -13 -14 -13 -25 0 -18 1 -18 16 -3 13 13 19 14 25
4 4 -8 11 -10 15 -6 4 3 1 13 -6 22 -13 16 -17 17 -37 8z"/>
<path d="M2605 3518 c-11 -7 -47 -22 -80 -35 -33 -12 -55 -22 -49 -22 19 -1
178 49 188 59 14 14 -34 12 -59 -2z"/>
<path d="M2428 3453 c6 -2 18 -2 25 0 6 3 1 5 -13 5 -14 0 -19 -2 -12 -5z"/>
<path d="M2918 3430 c-4 -30 5 -37 29 -22 8 5 6 13 -7 29 l-18 23 -4 -30z"/>
<path d="M2643 3364 c-24 -7 -77 -18 -118 -25 -41 -7 -75 -17 -75 -21 0 -5 10
-6 23 -4 12 3 61 10 108 16 88 12 114 21 108 37 -2 5 -21 4 -46 -3z"/>
<path d="M2912 3292 c-13 -13 -22 -25 -20 -26 2 -1 11 -8 21 -16 17 -12 18
-11 11 16 -4 16 -3 26 1 22 4 -4 10 -21 14 -37 4 -23 10 -28 20 -22 15 10 10
46 -11 72 -12 14 -15 13 -36 -9z"/>
<path d="M2739 3224 c-12 -32 -7 -39 17 -26 14 8 21 6 30 -6 11 -15 13 -14 19
10 9 34 0 48 -31 48 -17 0 -27 -8 -35 -26z"/>
<path d="M2735 3173 c-33 -18 -166 -24 -241 -11 -51 10 -86 -10 -65 -35 7 -9
10 -25 6 -37 -7 -24 25 -40 80 -40 27 0 35 4 38 23 3 15 4 13 2 -5 l-2 -28 70
0 c63 0 71 2 90 26 17 22 26 25 54 21 18 -3 33 -2 33 3 0 14 43 -5 48 -21 3
-11 1 -11 -7 1 -8 11 -11 11 -11 2 0 -7 10 -16 22 -21 20 -7 20 -8 3 -15 -19
-7 -34 7 -36 34 -1 15 -16 -24 -18 -47 -1 -15 30 -17 44 -4 23 21 54 22 74 2
17 -17 19 -25 9 -51 -11 -33 -7 -46 11 -35 22 13 12 66 -17 93 -16 15 -36 39
-46 54 -10 15 -31 30 -47 33 -16 4 -29 11 -29 16 0 6 4 8 9 4 5 -3 12 -1 16 5
3 5 11 10 16 10 6 0 8 -4 4 -9 -8 -14 12 -23 35 -16 13 4 20 15 20 32 0 20 -4
24 -17 18 -42 -16 -80 -17 -96 -1 -19 19 -15 19 -52 -1z m41 -30 c-3 -4 -6 0
-6 7 0 9 -4 8 -13 -4 -13 -17 -14 -18 -20 -2 -4 10 -3 15 3 11 6 -3 13 1 17
10 6 16 7 16 15 0 6 -9 7 -19 4 -22z m111 5 c-3 -8 -6 -5 -6 6 -1 11 2 17 5
13 3 -3 4 -12 1 -19z m-20 -10 c-3 -8 -6 -5 -6 6 -1 11 2 17 5 13 3 -3 4 -12
1 -19z m-185 -10 c-7 -7 -12 -8 -12 -2 0 6 3 14 7 17 3 4 9 5 12 2 2 -3 -1
-11 -7 -17z m45 -4 c3 -18 2 -18 -6 1 -9 18 -10 18 -10 2 -1 -10 -5 -16 -11
-12 -12 8 0 37 14 32 6 -2 12 -12 13 -23z m-268 -24 c0 -10 -3 -8 -9 5 -12 27
-12 43 0 25 5 -8 9 -22 9 -30z m38 13 c-3 18 -1 25 5 19 14 -14 5 -55 -13 -57
-11 -2 -15 7 -16 34 l0 36 14 -30 14 -30 -4 28z m36 -10 c4 -19 2 -33 -3 -33
-6 0 -10 17 -10 37 0 43 5 41 13 -4z m71 11 c27 -26 19 -45 -8 -21 -13 12 -22
25 -20 29 7 11 10 10 28 -8z m49 7 c4 10 6 10 6 -2 1 -9 -6 -22 -14 -29 -13
-11 -15 -8 -15 16 0 20 3 25 9 15 7 -11 9 -11 14 0z m37 -35 c0 -15 -29 -30
-39 -20 -3 3 3 12 13 20 24 17 26 17 26 0z m-93 -18 c-3 -8 -6 -5 -6 6 -1 11
2 17 5 13 3 -3 4 -12 1 -19z m-20 -10 c-3 -8 -6 -5 -6 6 -1 11 2 17 5 13 3 -3
4 -12 1 -19z"/>
<path d="M2920 3145 c0 -3 7 -17 16 -30 9 -14 12 -25 6 -25 -5 0 -13 7 -16 16
-4 9 -9 14 -12 11 -7 -7 14 -47 26 -47 16 0 21 38 8 59 -12 19 -28 28 -28 16z"/>
<path d="M2880 3102 c0 -5 10 -17 22 -28 l21 -19 -18 28 c-18 28 -25 33 -25
19z"/>
<path d="M2739 3068 c-20 -16 -31 -46 -20 -53 5 -2 11 4 14 14 3 14 11 18 26
14 l21 -5 -23 -18 c-63 -49 -141 -55 -262 -20 -100 29 -103 28 -102 -22 1 -24
-2 -50 -7 -59 -13 -28 51 -42 168 -37 94 3 105 6 135 31 36 30 58 34 86 13 13
-9 16 -19 10 -32 -8 -18 -8 -18 -13 1 -5 25 -19 34 -42 28 -26 -7 -53 -39 -45
-53 5 -8 11 -6 20 6 14 20 48 28 42 11 -3 -7 -10 -11 -16 -9 -6 1 -10 -3 -8
-9 1 -6 -20 -20 -48 -31 -41 -16 -64 -19 -130 -14 -44 3 -97 8 -119 12 -38 6
-56 -4 -56 -31 0 -5 5 -3 10 5 7 12 10 8 10 -15 0 -20 -3 -26 -9 -17 -7 11
-10 10 -15 -3 -9 -24 0 -33 41 -44 45 -13 55 -2 51 52 -2 20 1 37 6 37 4 0 6
-22 4 -50 l-5 -50 88 0 c72 0 89 3 89 15 0 23 46 48 76 41 16 -4 23 -3 19 3
-3 6 0 8 8 5 8 -3 18 5 24 18 l11 23 7 -27 c11 -41 24 -34 19 10 l-4 37 10
-32 c7 -22 15 -30 25 -27 17 7 30 48 20 63 -9 15 -45 13 -75 -4 -29 -17 -50
-19 -50 -6 0 5 14 12 30 16 17 4 30 11 30 16 0 6 4 8 9 5 13 -8 19 13 15 54
-2 19 -1 27 2 18 9 -29 37 -22 32 7 -3 13 -1 22 3 19 5 -3 9 -14 9 -26 0 -19
2 -19 23 -5 15 10 22 24 22 46 0 30 -2 32 -25 26 -14 -4 -39 -9 -57 -12 -31
-5 -32 -4 -35 33 -3 42 -22 54 -49 32z m-319 -94 c0 -14 4 -23 10 -19 5 3 6
13 3 23 -4 12 -3 14 5 7 12 -11 4 -65 -9 -65 -5 0 -9 6 -9 13 0 9 -2 9 -8 0
-4 -7 -7 8 -7 32 0 23 3 41 8 38 4 -2 7 -15 7 -29z m464 -6 c-7 -22 -7 -22
-14 -3 -4 11 -3 23 4 27 15 10 19 3 10 -24z m-100 7 c4 -11 -1 -15 -19 -15
-27 0 -42 16 -23 23 23 10 36 7 42 -8z m-304 -15 c9 -16 8 -18 -5 -14 -8 4
-15 12 -15 20 0 20 7 17 20 -6z m41 -37 c-9 -15 -10 -12 -10 17 0 29 1 32 10
18 7 -12 7 -24 0 -35z m27 22 c-3 -3 -9 2 -12 12 -6 14 -5 15 5 6 7 -7 10 -15
7 -18z m160 13 c-2 -5 -8 -9 -13 -9 -5 0 -11 4 -13 9 -1 5 4 9 13 9 9 0 14 -4
13 -9z m-58 -8 c0 -5 -2 -10 -4 -10 -3 0 -8 5 -11 10 -3 6 -1 10 4 10 6 0 11
-4 11 -10z m-49 -15 c7 18 8 18 8 2 1 -10 -6 -20 -15 -24 -17 -6 -36 15 -27
30 3 5 10 1 16 -9 10 -17 11 -17 18 1z m-121 -21 c0 -8 -5 -12 -10 -9 -6 4 -8
11 -5 16 9 14 15 11 15 -7z m361 -101 c-10 -17 -10 -16 -11 3 0 23 13 41 18
25 2 -6 -1 -18 -7 -28z m-411 -11 c0 -12 -3 -12 -15 -2 -8 7 -15 13 -15 15 0
1 7 2 15 2 8 0 15 -7 15 -15z m183 -12 c-3 -12 -8 -19 -11 -16 -5 6 5 36 12
36 2 0 2 -9 -1 -20z m35 -5 c-6 -14 -13 -23 -15 -21 -5 5 15 46 22 46 3 0 -1
-11 -7 -25z m52 21 c0 -2 -7 -7 -16 -10 -8 -3 -12 -2 -9 4 6 10 25 14 25 6z
m-115 -36 c-4 -12 -9 -19 -12 -17 -3 3 -2 15 2 27 4 12 9 19 12 17 3 -3 2 -15
-2 -27z m-69 0 c0 -11 -6 -20 -13 -20 -16 0 -17 12 -1 28 7 7 12 12 13 12 0 0
1 -9 1 -20z m21 -2 c-3 -8 -6 -5 -6 6 -1 11 2 17 5 13 3 -3 4 -12 1 -19z"/>
<path d="M2415 3050 c-7 -12 -6 -12 104 -39 92 -23 148 -26 171 -11 13 9 13
11 1 19 -8 5 -20 7 -28 4 -18 -7 -203 16 -225 28 -10 6 -19 5 -23 -1z"/>
<path d="M2829 2899 c11 -31 28 -35 26 -7 -1 13 -9 24 -18 26 -14 3 -15 -1 -8
-19z"/>
<path d="M2380 2871 c0 -6 9 -11 19 -11 11 0 48 -7 82 -16 59 -15 131 -14 174
2 37 15 7 21 -87 20 -57 0 -122 3 -145 7 -30 6 -43 5 -43 -2z"/>
<path d="M2873 2867 c4 -10 7 -30 7 -43 0 -13 5 -24 11 -24 6 0 9 9 6 20 -3
12 -1 18 5 14 5 -3 8 -15 5 -25 -3 -12 2 -23 13 -29 25 -14 30 -13 24 5 -4 8
-10 12 -15 9 -5 -3 -9 2 -9 11 0 10 -12 31 -27 49 -15 17 -24 23 -20 13z"/>
<path d="M2748 2737 c2 -20 -1 -38 -8 -42 -17 -10 -23 1 -12 22 14 27 4 43
-27 43 -32 0 -51 -16 -51 -44 1 -19 1 -20 11 -3 6 9 15 15 20 11 15 -9 -11
-35 -56 -55 -49 -23 -114 -24 -179 -4 -92 28 -132 14 -106 -35 9 -18 8 -25 -7
-42 -17 -19 -17 -21 -1 -32 22 -16 209 -40 239 -31 13 4 34 16 46 27 30 28 71
17 86 -22 12 -33 37 -39 57 -15 11 13 15 13 21 3 7 -10 9 -10 9 0 0 6 5 12 11
12 5 0 7 -5 4 -10 -3 -6 1 -13 10 -17 10 -3 21 0 26 8 7 11 9 11 9 1 0 -7 5
-10 10 -7 18 11 11 24 -27 49 -27 16 -43 21 -55 15 -11 -6 -18 -5 -21 4 -3 6
-6 3 -6 -8 -1 -16 -3 -17 -10 -6 -5 8 -18 16 -27 17 -10 2 -23 10 -30 18 -8
12 -13 13 -22 4 -9 -9 -12 -8 -12 5 0 9 4 17 10 17 5 0 7 7 4 15 -13 32 -40
15 -35 -22 1 -7 -3 -13 -9 -13 -15 0 -12 36 5 50 21 17 50 8 53 -17 3 -21 9
-25 63 -37 32 -7 65 15 56 38 -4 11 -19 16 -47 16 -22 0 -40 4 -40 10 0 5 8 9
18 8 47 -4 54 1 50 32 -3 17 -1 30 4 30 4 0 8 -16 8 -35 0 -30 3 -35 23 -35
12 0 33 -3 46 -7 19 -5 22 -3 16 8 -8 12 -6 12 8 0 9 -7 17 -9 17 -4 0 19 -96
101 -126 107 -29 7 -30 6 -26 -27z m103 -53 c14 -17 -2 -19 -19 -2 -9 9 -12 9
-12 -1 0 -7 -4 -9 -10 -6 -5 3 -10 12 -10 20 0 16 34 9 51 -11z m-474 -51 c2
-21 -4 -36 -20 -49 -22 -19 -22 -19 -4 2 21 25 22 38 2 54 -20 17 -19 29 2 26
12 -2 18 -13 20 -33z m26 -10 c-3 -21 -9 -42 -14 -47 -4 -5 -6 0 -4 10 12 60
16 74 20 74 2 0 1 -17 -2 -37z m62 6 c4 -6 13 -8 21 -5 21 8 63 -14 57 -30 -3
-8 0 -14 6 -14 6 0 11 11 11 25 0 14 4 25 9 25 6 0 6 -12 1 -29 -4 -16 -7 -31
-5 -33 2 -2 -3 -9 -11 -16 -12 -11 -16 -9 -24 14 -8 19 -15 25 -30 21 -11 -3
-23 -1 -26 5 -3 5 -11 7 -18 5 -7 -3 -12 5 -12 19 0 25 10 31 21 13z m135 -26
c-1 -28 -3 -34 -10 -22 -8 14 -3 59 6 59 2 0 4 -17 4 -37z m-170 3 c0 -8 -4
-17 -9 -21 -6 -3 -9 4 -8 15 1 23 17 28 17 6z m33 -47 c-6 -6 -15 -3 -24 8
-13 16 -12 17 4 4 15 -12 17 -11 18 5 0 12 2 14 6 6 3 -8 1 -18 -4 -23z m50 6
c-3 -9 -8 -14 -10 -11 -3 3 -2 9 2 15 9 16 15 13 8 -4z"/>
<path d="M2356 2722 c-13 -12 -5 -22 17 -22 12 0 51 -9 85 -20 78 -24 102 -25
150 -3 l37 17 -106 7 c-58 4 -122 12 -142 17 -19 6 -38 7 -41 4z"/>
<path d="M2310 2537 c0 -7 24 -20 53 -29 62 -21 237 -26 237 -7 0 6 -15 10
-37 8 -55 -4 -183 11 -220 27 -25 10 -33 10 -33 1z"/>
<path d="M2627 2532 c-25 -28 -21 -33 24 -30 43 2 52 8 41 25 -14 21 -48 24
-65 5z"/>
<path d="M2287 2504 c-3 -4 1 -17 9 -30 11 -15 14 -34 9 -56 -5 -27 -4 -30 6
-15 6 11 9 32 7 48 -3 16 -1 29 4 29 11 0 10 -61 -1 -79 -5 -8 -17 -16 -25
-17 -19 -3 -19 -5 -5 34 7 22 7 36 0 49 -10 17 -10 16 -11 -4 0 -12 -8 -35
-17 -52 -29 -49 -8 -61 137 -79 120 -15 121 -15 150 7 16 11 37 21 48 21 10 0
24 6 31 13 11 10 13 9 9 -3 -2 -8 -20 -20 -39 -27 -27 -9 -33 -16 -31 -34 3
-30 7 -33 31 -20 11 6 31 12 44 13 22 2 24 6 19 41 -5 37 -4 38 23 31 27 -7
28 -6 21 22 -6 22 -5 26 4 17 17 -16 25 -99 11 -107 -7 -5 -11 4 -12 26 -1 31
-2 31 -8 8 l-8 -25 -5 25 -5 25 -2 -24 c-2 -35 26 -63 51 -50 10 6 28 7 38 4
17 -5 20 -2 20 22 -1 25 -2 26 -14 11 -14 -19 -32 -25 -21 -8 3 6 1 10 -4 10
-6 0 -10 12 -10 28 2 27 2 27 7 2 4 -23 5 -24 13 -5 7 18 8 18 8 2 1 -10 5
-16 10 -12 13 7 34 -33 27 -51 -3 -8 0 -14 5 -14 7 0 9 11 7 25 -3 13 -1 22 3
19 5 -3 9 -13 9 -22 0 -12 3 -13 11 -5 16 16 -1 41 -47 73 -33 22 -39 32 -42
67 -4 53 -10 54 -191 43 -131 -8 -148 -7 -195 11 -54 20 -69 23 -79 13z m83
-74 c0 -16 -5 -32 -10 -35 -6 -4 -7 -11 -4 -17 8 -13 44 41 37 58 -3 8 2 11
14 9 10 -2 21 -4 25 -4 4 -1 8 -13 10 -28 l4 -28 11 25 c10 22 12 23 12 5 1
-12 -4 -26 -10 -32 -7 -7 -5 -12 10 -16 13 -3 18 -1 15 7 -6 14 14 71 22 64 2
-3 0 -18 -6 -33 -7 -20 -8 -31 0 -39 20 -20 9 -23 -47 -14 -32 6 -73 11 -90
11 -37 2 -41 11 -17 34 11 11 14 26 10 45 -3 18 -2 27 4 23 6 -3 10 -19 10
-35z m285 32 c10 -6 11 -20 5 -39 -1 -5 -2 -11 -2 -15 1 -3 -5 -9 -13 -12 -18
-6 -20 5 -4 21 13 13 4 33 -16 33 -18 0 -47 -29 -40 -41 4 -5 2 -9 -4 -9 -22
0 -21 21 3 45 25 25 52 31 71 17z m-105 -27 c-7 -8 -16 -30 -21 -48 -8 -31 -9
-31 -4 6 4 38 23 73 33 62 3 -2 -1 -11 -8 -20z m170 10 c0 -12 -19 -12 -23 0
-4 9 -1 12 9 8 7 -3 14 -7 14 -8z"/>
<path d="M2240 2322 c0 -27 38 -39 145 -47 50 -3 109 -8 133 -11 43 -6 44 -6
40 22 -3 26 -6 29 -38 26 -43 -3 -239 14 -262 23 -14 5 -18 2 -18 -13z"/>
<path d="M2202 2250 c0 -30 -2 -68 -4 -85 -3 -29 -1 -30 37 -32 22 0 65 -8 95
-17 72 -21 166 -21 173 -1 4 8 2 17 -3 20 -6 4 -10 0 -10 -7 0 -10 -2 -10 -9
1 -7 11 -9 11 -14 0 -4 -11 -6 -10 -6 2 -1 17 18 39 34 39 5 0 3 -5 -5 -10
-13 -8 -12 -10 3 -10 9 0 17 5 17 11 0 5 4 8 9 5 5 -3 11 1 15 9 3 8 13 15 21
15 12 0 15 -6 11 -22 -4 -16 -2 -14 6 5 7 15 15 27 20 27 13 0 9 -38 -4 -44
-7 -3 3 -3 22 0 65 9 83 64 22 64 -16 0 -36 7 -43 17 -12 14 -12 16 1 11 8 -3
20 2 27 11 11 14 13 13 14 -9 l1 -25 8 25 c4 14 9 18 9 10 1 -13 2 -13 12 0 8
12 9 11 4 -6 -3 -12 0 -26 9 -33 11 -9 15 -7 19 11 4 12 1 28 -4 35 -21 25
-49 24 -98 -3 -47 -25 -52 -26 -114 -15 -35 6 -92 11 -126 11 -37 0 -74 6 -92
16 -39 20 -46 13 -26 -28 15 -30 17 -31 17 -9 0 13 3 22 6 18 4 -3 4 -17 0
-30 -7 -29 -36 -32 -35 -3 1 12 -4 35 -9 51 -9 27 -10 25 -10 -25z m83 -37
c-5 -15 -8 -39 -7 -53 l1 -25 -8 25 -7 25 -8 -23 c-4 -13 -10 -21 -13 -19 -2
3 5 22 16 43 12 21 21 45 21 53 0 8 3 12 6 8 4 -3 3 -19 -1 -34z m131 1 c-4
-14 -9 -24 -12 -21 -3 2 -2 17 2 31 3 15 9 25 11 22 3 -3 2 -17 -1 -32z m-99
-11 c-3 -10 -5 -4 -5 12 0 17 2 24 5 18 2 -7 2 -21 0 -30z m53 8 c0 -9 5 -22
10 -27 8 -8 4 -18 -10 -35 -12 -13 -18 -17 -14 -9 12 21 16 52 7 47 -5 -3 -8
8 -9 24 -1 15 3 26 7 23 5 -3 9 -13 9 -23z m67 -8 c-3 -10 -5 -4 -5 12 0 17 2
24 5 18 2 -7 2 -21 0 -30z m36 17 c-3 -11 -7 -20 -9 -20 -2 0 -4 9 -4 20 0 11
4 20 9 20 5 0 7 -9 4 -20z m34 -12 c-3 -8 -6 -5 -6 6 -1 11 2 17 5 13 3 -3 4
-12 1 -19z m145 -12 c7 5 8 2 4 -5 -5 -7 -11 -10 -14 -7 -3 3 -11 1 -19 -5
-10 -9 -13 -8 -13 4 0 17 23 29 28 15 2 -4 9 -5 14 -2z m-322 -19 c0 4 5 2 11
-4 6 -6 8 -16 4 -23 -5 -8 -11 -6 -22 7 -14 17 -14 17 -9 0 3 -10 2 -16 -3
-13 -5 3 -11 15 -14 26 -4 17 -2 18 14 9 10 -5 19 -6 19 -2z m-104 -23 c-4 -9
-9 -15 -11 -12 -3 3 -3 13 1 22 4 9 9 15 11 12 3 -3 3 -13 -1 -22z m190 14
c-12 -40 -17 -50 -22 -46 -5 6 13 58 20 58 3 0 4 -6 2 -12z m26 -28 c-2 -16
-7 -30 -11 -30 -4 0 -6 14 -3 30 2 17 7 30 11 30 4 0 6 -13 3 -30z"/>
<path d="M2677 2180 c-7 -26 -52 -42 -104 -38 -39 3 -43 1 -43 -19 0 -12 -6
-26 -13 -30 -24 -14 -28 -41 -7 -48 22 -7 43 2 35 15 -3 4 2 13 10 20 8 7 15
9 15 4 0 -5 5 -1 11 8 6 11 16 15 26 11 13 -5 15 -2 10 13 -7 18 -6 18 9 -1
16 -20 16 -20 10 1 -4 15 -2 21 9 21 10 0 13 -6 10 -18 -3 -9 -1 -20 5 -24 14
-8 13 -48 -2 -63 -9 -9 -9 -12 0 -12 20 0 31 68 18 108 -4 12 -5 22 -1 22 3 0
10 -10 15 -22 8 -22 9 -21 9 6 1 16 4 26 8 22 4 -4 6 -22 5 -41 -2 -26 4 -42
22 -60 34 -34 51 -31 64 8 l12 32 -5 -35 -5 -35 20 24 c25 29 25 38 0 78 -14
24 -29 34 -57 39 -21 3 -48 12 -59 20 -19 12 -22 11 -27 -6z m63 -81 c0 -17
-4 -28 -10 -24 -5 3 -10 17 -10 31 0 13 5 24 10 24 6 0 10 -14 10 -31z m25
-29 c-11 -33 -21 -22 -17 16 4 29 6 34 14 20 5 -9 6 -25 3 -36z m22 8 c-3 -8
-6 -5 -6 6 -1 11 2 17 5 13 3 -3 4 -12 1 -19z m40 0 c-3 -8 -6 -5 -6 6 -1 11
2 17 5 13 3 -3 4 -12 1 -19z"/>
<path d="M2175 2109 c-4 -5 3 -9 14 -9 12 0 44 -9 73 -20 57 -22 218 -29 218
-10 0 6 -22 10 -48 10 -27 0 -71 6 -98 14 -66 19 -152 27 -159 15z"/>
<path d="M2156 2078 c-3 -7 -7 -32 -9 -56 -3 -24 -12 -51 -21 -61 -9 -10 -16
-23 -16 -29 0 -17 54 -42 91 -41 37 0 54 -3 115 -21 62 -19 88 -11 92 27 4 36
33 53 58 32 22 -18 44 -20 44 -4 0 7 -14 15 -31 19 -29 5 -30 7 -14 23 16 16
18 16 27 0 11 -20 28 -22 28 -4 0 8 7 14 15 14 18 0 19 -9 3 -25 -7 -7 -8 -12
-2 -12 6 0 16 10 23 23 11 21 11 21 6 0 -5 -16 -2 -21 12 -19 11 2 20 14 23
32 3 17 8 24 13 17 4 -6 4 -19 0 -29 -8 -23 13 -10 27 16 12 23 -12 52 -37 43
-11 -4 -14 -3 -9 5 4 7 18 12 31 12 27 0 40 24 21 39 -17 14 -44 5 -79 -27
-26 -25 -29 -25 -75 -14 -26 7 -76 12 -112 11 -44 -1 -85 5 -127 20 -72 24
-92 26 -97 9z m28 -48 c-4 -8 -7 -23 -8 -32 -1 -36 -10 -5 -11 38 0 38 2 42
13 27 7 -10 9 -24 6 -33z m32 16 c19 -19 18 -50 -3 -67 -15 -13 -15 -12 -5 8
7 12 12 28 12 35 -1 7 -7 3 -14 -10 -12 -23 -13 -22 -12 12 1 41 2 41 22 22z
m65 -66 c5 0 9 10 10 23 0 13 2 16 6 7 16 -49 15 -53 -12 -58 -20 -3 -20 -3 0
12 20 14 20 15 0 13 -15 -2 -20 4 -21 23 -1 22 0 22 3 3 2 -13 9 -23 14 -23z
m65 14 c-4 -14 -2 -24 4 -24 5 0 10 5 10 12 0 6 7 3 15 -8 8 -10 15 -14 15 -9
0 6 5 3 10 -5 7 -12 11 -8 16 18 4 17 10 32 15 32 5 0 3 -15 -4 -32 -10 -23
-20 -32 -31 -30 -10 2 -15 -1 -12 -6 4 -7 -3 -8 -19 -4 -13 4 -24 9 -24 12 0
3 -4 18 -10 33 -8 21 -8 26 1 21 8 -5 9 -2 5 10 -4 11 -3 15 4 10 6 -3 8 -17
5 -30z m91 30 c-3 -3 -12 -4 -19 -1 -8 3 -5 6 6 6 11 1 17 -2 13 -5z m-44 -24
c-3 -11 -7 -20 -9 -20 -2 0 -4 9 -4 20 0 11 4 20 9 20 5 0 7 -9 4 -20z m102 0
c6 -1 12 -3 13 -5 2 -2 -4 -2 -15 0 -10 2 -24 4 -30 4 -7 1 -13 6 -13 11 0 7
6 7 18 1 9 -5 22 -10 27 -11z m92 -42 c-3 -7 -5 -2 -5 12 0 14 2 19 5 13 2 -7
2 -19 0 -25z m-413 -23 c-10 -15 -20 -23 -22 -17 -2 6 -11 8 -20 5 -15 -6 -15
-5 -3 11 10 12 16 14 22 5 5 -8 11 -5 19 11 6 12 14 19 17 17 2 -3 -3 -18 -13
-32z m31 -6 c-9 -17 -19 -29 -22 -26 -5 5 25 57 33 57 3 0 -3 -14 -11 -31z
m35 -4 c-6 -15 -13 -26 -16 -23 -2 3 0 18 6 33 6 15 13 26 16 23 2 -3 0 -18
-6 -33z m22 -17 c-8 -8 -9 -4 -5 13 4 13 8 18 11 10 2 -7 -1 -18 -6 -23z m31
4 c-3 -12 -9 -22 -14 -22 -5 0 -3 11 3 25 13 30 20 28 11 -3z m23 -20 c-11
-10 -15 4 -8 28 l7 25 3 -23 c2 -13 1 -26 -2 -30z m37 18 c-5 -19 -23 -39 -23
-25 0 9 20 45 24 45 2 0 2 -9 -1 -20z m20 -10 c-3 -11 -10 -23 -16 -27 -5 -3
-8 -2 -5 3 3 5 8 17 11 27 9 24 16 22 10 -3z"/>
<path d="M2613 1935 c-25 -11 -30 -19 -27 -37 4 -17 1 -15 -10 7 -16 34 -21
20 -6 -19 5 -14 7 -26 4 -26 -3 0 -10 13 -15 29 -13 37 -36 47 -45 19 -4 -15
-8 -17 -14 -8 -5 8 -8 4 -7 -12 2 -31 26 -26 28 6 1 20 2 20 6 1 3 -11 14 -26
24 -33 30 -21 22 -33 -9 -15 -28 16 -31 16 -87 -16 -99 -56 -168 -59 -266 -13
-36 18 -73 32 -81 32 -27 0 -48 -35 -48 -81 -1 -24 -7 -55 -15 -69 -26 -46
-20 -57 39 -64 70 -9 262 -10 275 -1 6 3 11 16 11 29 0 12 5 27 12 34 15 15
64 16 73 2 5 -7 11 -8 19 -1 9 7 12 3 11 -16 0 -39 22 -39 34 -1 11 33 11 33
5 -7 -7 -46 4 -42 17 7 8 31 8 30 4 -8 -4 -31 -1 -43 10 -48 10 -4 15 1 15 14
0 11 4 20 9 20 5 0 12 10 16 23 6 19 8 20 12 4 3 -10 0 -24 -6 -31 -8 -10 -8
-16 1 -23 30 -24 43 -20 55 16 l12 36 -4 -40 -5 -40 13 30 c8 17 22 37 32 45
11 8 16 10 12 4 -4 -7 0 -14 8 -18 9 -3 15 0 15 9 0 21 -73 71 -114 79 -18 4
-41 15 -51 26 -16 18 -16 20 2 52 22 41 33 49 56 44 14 -3 17 0 13 17 -3 12
-3 16 0 9 3 -6 10 -10 15 -6 5 3 9 1 9 -5 0 -6 7 -8 15 -5 11 5 15 -1 15 -20
0 -18 7 -29 23 -35 53 -21 89 57 45 99 -26 24 -105 26 -155 5z m107 -25 c0 -5
-9 -8 -19 -7 -15 1 -17 4 -9 14 11 13 28 9 28 -7z m-113 -22 c-3 -7 -5 -2 -5
12 0 14 2 19 5 13 2 -7 2 -19 0 -25z m20 10 c-3 -8 -6 -5 -6 6 -1 11 2 17 5
13 3 -3 4 -12 1 -19z m149 -22 c0 -13 -4 -22 -8 -19 -5 2 -8 -2 -8 -9 0 -9 -3
-9 -10 2 -9 13 -10 13 -11 0 0 -10 -2 -11 -6 -2 -2 6 -9 10 -14 6 -12 -7 -12
3 0 24 5 10 20 18 34 20 20 1 25 -3 23 -22z m-654 -110 c0 -45 -41 -133 -50
-108 -2 7 -8 10 -13 6 -5 -3 -9 -1 -9 5 0 5 5 13 10 16 6 3 10 0 10 -7 0 -8 6
-6 18 5 13 13 17 34 17 82 0 38 4 60 9 55 5 -5 9 -30 8 -54z m-26 39 c4 -8 3
-32 -1 -53 -6 -31 -9 -34 -15 -17 -12 29 -12 85 0 85 6 0 13 -7 16 -15z m54
-35 c0 -21 -3 -41 -7 -43 -5 -3 -8 17 -8 43 0 26 3 46 8 43 4 -2 7 -22 7 -43z
m350 29 c0 10 8 7 25 -9 30 -28 32 -46 5 -62 -11 -7 -20 -20 -20 -28 0 -8 -5
-22 -10 -30 -8 -12 -10 -11 -10 7 0 12 11 35 25 51 21 26 23 31 10 42 -11 9
-23 9 -44 2 -38 -13 -46 -4 -18 18 16 13 24 15 29 7 5 -9 8 -8 8 2z m-320 -15
c0 -10 6 -14 14 -11 7 3 19 0 25 -6 14 -14 15 -30 1 -22 -5 3 -10 0 -11 -7 0
-10 -2 -10 -6 0 -2 6 -9 10 -14 6 -5 -3 -9 1 -10 8 0 7 -4 4 -9 -7 -6 -15 -7
-11 -7 18 1 35 17 55 17 21z m187 -41 c-3 -10 -5 -4 -5 12 0 17 2 24 5 18 2
-7 2 -21 0 -30z m33 10 c-1 -24 -2 -26 -11 -10 -5 9 -7 22 -4 27 10 17 15 11
15 -17z m-63 -5 c-3 -8 -6 -5 -6 6 -1 11 2 17 5 13 3 -3 4 -12 1 -19z m114 -5
c16 -19 18 -23 4 -12 -11 9 -26 15 -33 13 -7 -1 -8 0 -2 3 5 2 8 9 4 14 -11
18 3 8 27 -18z m-204 -5 c-3 -8 -6 -5 -6 6 -1 11 2 17 5 13 3 -3 4 -12 1 -19z
m30 0 c-3 -8 -6 -5 -6 6 -1 11 2 17 5 13 3 -3 4 -12 1 -19z m40 0 c-3 -8 -6
-5 -6 6 -1 11 2 17 5 13 3 -3 4 -12 1 -19z m8 -18 c9 14 28 13 23 -2 -4 -12
-14 -13 -48 -9 -5 0 -10 6 -10 12 0 8 4 8 14 0 10 -8 16 -9 21 -1z m340 -19
c-3 -2 -11 1 -18 7 -8 7 -18 8 -22 4 -5 -4 -5 -1 -1 5 5 10 11 10 26 1 11 -7
17 -14 15 -17z m-500 9 c-3 -5 -12 -10 -18 -10 -7 0 -6 4 3 10 19 12 23 12 15
0z m417 -23 c-5 -20 -6 -20 -13 -1 -11 29 -10 34 5 28 8 -3 12 -13 8 -27z
m-390 -7 c-2 -17 -9 -33 -15 -37 -7 -4 -8 0 -4 11 4 10 7 26 7 37 0 10 4 19 8
19 5 0 7 -14 4 -30z m25 -17 c-3 -10 -5 -2 -5 17 0 19 2 27 5 18 2 -10 2 -26
0 -35z m33 7 c0 -16 -4 -30 -8 -30 -5 0 -7 14 -4 30 2 17 6 30 8 30 2 0 4 -13
4 -30z m47 -7 c-3 -10 -5 -4 -5 12 0 17 2 24 5 18 2 -7 2 -21 0 -30z m-150
-10 c-3 -10 -5 -4 -5 12 0 17 2 24 5 18 2 -7 2 -21 0 -30z m129 1 c-4 -14 -9
-24 -12 -21 -3 2 -2 17 2 31 3 15 9 25 11 22 3 -3 2 -17 -1 -32z m65 11 c8 18
9 19 6 1 -1 -11 -9 -20 -18 -21 -12 -2 -15 3 -10 24 l5 26 4 -25 c4 -23 5 -24
13 -5z m285 -11 c-4 -14 -9 -24 -12 -21 -3 2 -2 17 2 31 3 15 9 25 11 22 3 -3
2 -17 -1 -32z m-510 0 c-4 -9 -9 -15 -11 -12 -3 3 -3 13 1 22 4 9 9 15 11 12
3 -3 3 -13 -1 -22z m524 -11 c-11 -17 -11 -17 -6 0 3 10 6 24 7 30 0 9 2 9 5
0 3 -7 0 -20 -6 -30z"/>
<path d="M2731 1874 c0 -11 3 -14 6 -6 3 7 2 16 -1 19 -3 4 -6 -2 -5 -13z"/>
<path d="M2751 1874 c0 -11 3 -14 6 -6 3 7 2 16 -1 19 -3 4 -6 -2 -5 -13z"/>
<path d="M2082 1775 c0 -16 2 -22 5 -12 2 9 2 23 0 30 -3 6 -5 -1 -5 -18z"/>
<path d="M2430 1892 c0 -10 -7 -28 -16 -40 -23 -33 -11 -38 30 -12 40 24 40
24 26 51 -13 24 -40 25 -40 1z"/>
<path d="M2100 1880 c0 -11 6 -20 14 -20 7 0 43 -13 79 -30 41 -18 83 -30 109
-30 50 0 88 9 88 20 0 10 -165 50 -204 50 -15 0 -40 7 -56 15 -28 15 -30 14
-30 -5z"/>
<path d="M2660 1869 c0 -4 7 -9 15 -13 9 -3 15 0 15 8 0 7 -7 13 -15 13 -8 0
-15 -4 -15 -8z"/>
<path d="M2387 1683 c-4 -3 -7 -17 -7 -29 0 -13 -4 -26 -10 -29 -18 -11 -11
-25 13 -25 13 0 32 9 42 20 10 11 24 20 32 20 16 0 17 22 1 38 -13 13 -60 16
-71 5z"/>
<path d="M2687 1636 c-10 -25 -8 -34 3 -16 6 9 10 11 10 3 0 -7 7 -10 15 -7 8
4 15 13 15 21 0 12 -3 13 -14 4 -11 -9 -15 -9 -18 1 -3 8 -7 6 -11 -6z"/>
<path d="M2444 1609 c-29 -32 -50 -40 -78 -29 -20 7 -37 4 -78 -15 -63 -29
-89 -31 -172 -8 -78 20 -102 14 -90 -25 5 -15 9 -52 9 -82 0 -30 4 -61 8 -67
6 -9 39 -13 110 -13 115 0 172 12 187 40 14 25 13 35 -2 22 -10 -8 -13 -3 -15
21 -1 20 1 26 5 15 8 -21 23 -12 39 22 l12 25 1 -25 c1 -23 2 -23 10 -5 5 11
9 14 9 6 1 -11 4 -11 16 -1 12 10 15 9 15 -6 0 -17 1 -17 14 2 14 17 15 15 12
-28 -1 -27 1 -48 6 -48 4 0 9 10 9 23 1 13 3 16 5 7 3 -9 19 -22 37 -30 18 -7
35 -15 38 -17 4 -2 10 8 13 22 4 14 14 29 24 32 9 3 26 13 36 22 11 9 16 11
13 4 -4 -6 -2 -22 4 -36 14 -31 51 -26 70 10 18 33 2 56 -47 66 -21 5 -52 12
-68 17 -35 11 -44 5 -30 -18 6 -10 23 -17 37 -16 15 1 25 -2 22 -6 -2 -4 -14
-6 -27 -4 -13 1 -27 3 -31 3 -16 2 -24 46 -14 75 9 25 7 32 -13 48 -30 24 -72
23 -96 -3z m76 -21 c0 -5 -8 -8 -18 -6 -21 3 -75 -29 -67 -41 2 -5 -2 -14 -9
-20 -9 -7 -17 -8 -20 -2 -7 10 -24 10 -43 -2 -7 -4 -14 1 -18 14 -8 25 -1 34
17 23 20 -13 49 -5 80 21 26 22 78 31 78 13z m-439 -73 c10 -38 14 -43 26 -33
11 9 16 9 24 -3 6 -9 4 -18 -6 -25 -8 -6 -14 -13 -12 -15 1 -3 -8 7 -20 21
-13 14 -23 36 -23 51 0 14 -5 30 -12 37 -9 9 -9 12 0 12 6 0 17 -20 23 -45z
m239 12 c0 -18 -2 -19 -10 -7 -13 20 -13 43 0 35 6 -3 10 -16 10 -28z m190 18
c7 -8 14 -41 15 -73 1 -31 0 -45 -2 -29 -4 25 -33 40 -33 16 0 -5 5 -7 10 -4
6 3 10 -1 10 -9 0 -23 -18 -19 -25 5 -6 17 -9 19 -16 8 -6 -11 -9 -11 -9 -1 0
7 11 17 25 22 15 6 25 17 25 30 0 23 -31 41 -38 22 -2 -7 -8 -12 -13 -12 -6 0
-5 8 1 20 13 24 33 26 50 5z m-450 -42 c0 -22 -8 -14 -19 20 -10 29 -9 30 4
13 8 -11 15 -26 15 -33z m58 12 c-3 -3 -9 2 -12 12 -6 14 -5 15 5 6 7 -7 10
-15 7 -18z m142 -15 c0 -16 -2 -30 -4 -30 -2 0 -6 14 -8 30 -3 17 -1 30 4 30
4 0 8 -13 8 -30z m-104 -3 c-5 -22 -2 -24 29 -23 19 1 35 5 35 10 0 6 6 1 14
-9 18 -26 10 -51 -11 -33 -13 10 -19 8 -34 -11 -15 -18 -19 -20 -19 -7 0 9 -6
19 -13 22 -15 5 -18 74 -4 74 5 0 7 -11 3 -23z m52 5 c6 -18 -15 -14 -22 4 -4
10 -1 14 6 12 6 -2 14 -10 16 -16z m93 -3 c6 -13 7 -19 1 -15 -6 3 -13 -2 -15
-11 -2 -10 -4 -3 -3 14 1 39 2 39 17 12z m396 -39 c-12 -31 -27 -40 -27 -16 0
13 25 46 35 46 2 0 -2 -13 -8 -30z m-34 -9 c-4 -16 -8 -19 -14 -10 -4 7 -3 19
3 26 14 18 19 12 11 -16z m-357 -27 c-4 -14 -9 -24 -12 -21 -3 2 -2 17 2 31 3
15 9 25 11 22 3 -3 2 -17 -1 -32z m-245 -8 c-11 -27 -24 -37 -16 -11 3 8 7 22
10 31 3 9 8 15 11 12 2 -3 0 -17 -5 -32z m214 5 c-3 -12 -11 -21 -16 -21 -6 0
-8 3 -6 8 2 4 7 16 11 26 9 25 20 13 11 -13z m-125 2 c0 -10 -5 -25 -10 -33
-7 -11 -10 -7 -10 18 0 17 5 32 10 32 6 0 10 -8 10 -17z m61 -20 c-10 -17 -10
-16 -11 3 0 23 13 41 18 25 2 -6 -1 -18 -7 -28z m-118 7 c-3 -11 -7 -20 -9
-20 -2 0 -4 9 -4 20 0 11 4 20 9 20 5 0 7 -9 4 -20z"/>
<path d="M2032 1609 c2 -7 44 -22 92 -33 85 -19 89 -19 139 -1 85 29 83 31
-25 31 -57 -1 -127 3 -156 7 -41 6 -53 5 -50 -4z"/>
<path d="M2381 1443 c-19 -16 -21 -24 -15 -61 l7 -43 34 33 c54 53 31 117 -26
71z"/>
<path d="M2620 1429 c0 -11 4 -18 10 -14 5 3 7 12 3 20 -7 21 -13 19 -13 -6z"/>
<path d="M2586 1425 c-3 -8 -1 -15 4 -15 13 0 22 18 11 24 -5 3 -11 -1 -15 -9z"/>
<path d="M2460 1387 c-18 -9 -24 -20 -22 -37 2 -18 0 -22 -8 -14 -8 8 -21 6
-48 -7 -20 -11 -42 -19 -49 -19 -8 0 -10 -7 -6 -17 4 -11 8 -13 11 -5 2 7 8
10 13 6 15 -9 10 -20 -11 -21 -11 -1 -20 4 -20 13 0 17 1 17 -90 -2 -49 -10
-95 -13 -132 -9 -52 5 -58 4 -58 -12 0 -10 9 -36 20 -57 14 -28 18 -50 14 -80
-5 -32 -2 -45 10 -55 15 -12 22 -11 55 7 27 16 61 23 112 26 92 4 199 34 199
56 0 24 -17 43 -30 35 -21 -13 -80 4 -79 23 0 9 3 12 5 5 4 -8 11 -6 24 7 21
21 60 16 60 -7 0 -21 25 -10 27 13 3 18 2 18 -7 -1 -9 -19 -9 -18 -7 4 3 31
37 38 45 9 4 -15 7 -17 13 -6 12 18 11 40 -1 33 -5 -3 -10 -1 -10 6 0 11 -17
10 -92 -7 -20 -5 -28 -2 -28 7 0 11 18 14 72 14 69 0 72 -1 88 -30 9 -16 23
-30 30 -30 7 0 15 -6 18 -14 3 -8 0 -11 -7 -7 -7 5 -9 1 -5 -8 3 -9 1 -16 -5
-16 -6 0 -11 6 -11 14 0 7 -6 19 -14 25 -11 9 -18 6 -35 -15 -23 -29 -30 -57
-9 -36 20 20 29 13 11 -8 -11 -13 -19 -16 -24 -9 -4 8 -9 8 -13 1 -8 -13 10
-25 41 -28 26 -3 39 11 22 22 -8 5 -9 3 -4 -6 6 -9 4 -11 -4 -5 -18 10 2 27
22 19 20 -7 22 -20 6 -30 -12 -7 6 -24 26 -24 6 0 3 5 -5 10 -10 6 -11 13 -5
18 6 4 11 20 12 36 0 15 6 33 12 39 9 9 11 3 9 -23 -2 -24 1 -34 10 -33 6 2
12 -1 12 -6 0 -9 35 -7 69 4 12 3 26 16 32 28 12 22 12 22 -10 3 -11 -11 -24
-16 -29 -12 -4 4 5 17 21 28 32 23 28 33 -18 52 -18 8 -36 23 -40 35 -4 14
-16 21 -43 23 -32 3 -37 7 -40 30 -5 46 -57 69 -102 45z m10 -28 c0 -5 -4 -7
-10 -4 -6 3 -7 -1 -4 -10 6 -14 8 -14 18 0 7 9 16 12 25 6 19 -12 5 -31 -20
-28 -32 5 -53 47 -24 47 8 0 15 -5 15 -11z m146 -76 c-7 -8 27 -43 36 -37 5 3
7 0 6 -8 -2 -7 3 -12 10 -10 8 1 11 -2 7 -8 -4 -6 -21 -2 -45 10 -22 11 -46
20 -55 20 -8 0 -15 6 -15 13 0 19 4 22 35 23 14 1 24 0 21 -3z m-305 -27 c25
-11 19 -56 -6 -56 -12 0 -27 6 -34 13 -11 10 -12 9 -6 -3 8 -13 7 -13 -8 -1
-9 7 -17 9 -17 4 0 -9 -39 -13 -41 -3 0 3 -2 13 -4 23 -2 11 3 17 16 18 31 2
37 4 43 10 8 8 35 5 57 -5z m-231 -17 c18 -33 6 -42 -13 -9 -10 16 -14 30 -8
30 6 0 15 -9 21 -21z m36 -43 c4 -26 3 -37 -4 -33 -5 4 -12 25 -14 47 -4 49 8
39 18 -14z m44 -11 c5 -3 9 -23 9 -43 l-2 -37 -7 40 c-7 37 -7 37 -10 10 -2
-28 -3 -28 -11 10 -19 84 -19 93 -4 58 8 -17 19 -34 25 -38z m20 27 c0 -7 -4
-10 -10 -7 -5 3 -10 16 -10 28 0 18 2 19 10 7 5 -8 10 -21 10 -28z m479 -27
c6 3 11 -1 11 -9 0 -20 -42 -17 -52 4 -14 32 -8 43 11 21 11 -13 25 -20 30
-16z m-459 -31 c0 -21 -4 -33 -10 -29 -5 3 -10 19 -10 36 0 16 5 29 10 29 6 0
10 -16 10 -36z m17 -11 c-3 -10 -5 -2 -5 17 0 19 2 27 5 18 2 -10 2 -26 0 -35z
m30 15 c-3 -7 -5 -2 -5 12 0 14 2 19 5 13 2 -7 2 -19 0 -25z m30 -5 c-3 -10
-5 -4 -5 12 0 17 2 24 5 18 2 -7 2 -21 0 -30z m26 2 c-7 -21 -13 -19 -13 6 0
11 4 18 10 14 5 -3 7 -12 3 -20z m37 4 c0 -5 -4 -9 -10 -9 -5 0 -10 7 -10 16
0 8 5 12 10 9 6 -3 10 -10 10 -16z m-241 -52 c0 -21 -1 -21 -9 -2 -12 28 -12
37 0 30 6 -3 10 -16 9 -28z m31 0 c0 -5 -4 -5 -10 -2 -5 3 -10 14 -10 23 0 15
2 15 10 2 5 -8 10 -19 10 -23z"/>
<path d="M2295 1369 c-40 -15 -72 -19 -158 -16 l-108 2 3 -25 c3 -23 9 -26 65
-34 50 -7 79 -4 162 14 99 23 101 24 101 52 0 32 2 32 -65 7z"/>
<path d="M2472 1240 c0 -14 2 -19 5 -12 2 6 2 18 0 25 -3 6 -5 1 -5 -13z"/>
<path d="M2455 1201 c-3 -5 -1 -12 4 -15 5 -3 11 1 15 9 6 16 -9 21 -19 6z"/>
<path d="M2372 1080 c-47 -35 -104 -60 -139 -60 -6 0 -14 -10 -16 -22 l-4 -23
-2 23 c0 13 -7 22 -17 22 -10 0 -14 -6 -10 -15 3 -9 0 -15 -10 -15 -8 0 -13 4
-9 9 3 6 -4 9 -15 8 -33 -2 -23 -14 27 -31 58 -20 53 -20 53 8 0 18 5 23 23
22 18 -1 23 -8 27 -39 l5 -39 23 32 c13 17 21 34 17 38 -3 4 -10 0 -15 -8 -5
-8 -12 -11 -17 -7 -4 5 3 17 17 27 25 19 25 19 28 0 2 -11 8 -20 13 -20 6 0 7
9 4 21 -5 16 -3 20 6 17 8 -3 13 -12 13 -21 -1 -8 7 -18 18 -20 16 -5 17 -3 7
9 -22 27 -3 24 22 -3 13 -14 17 -23 9 -19 -8 4 -6 0 4 -8 11 -9 16 -16 12 -16
-4 0 2 -12 13 -26 12 -15 21 -31 21 -37 0 -6 -7 -2 -15 9 -14 18 -15 18 -6 -6
5 -14 14 -24 21 -22 7 1 26 -8 44 -21 17 -13 49 -27 71 -31 52 -10 115 -72
115 -113 0 -54 -13 -123 -22 -123 -6 0 -7 17 -2 43 14 72 9 96 -26 132 -27 28
-44 36 -102 45 -80 14 -102 32 -122 99 -8 27 -24 53 -40 65 -25 19 -29 19 -53
6 -15 -8 -33 -30 -42 -47 -21 -44 -29 -41 -33 10 -3 38 -4 35 -12 -27 -13
-106 -2 -135 63 -168 30 -16 68 -28 85 -28 46 -1 165 -36 195 -57 14 -11 40
-49 58 -85 22 -45 44 -74 68 -91 50 -34 66 -60 67 -107 0 -26 6 -44 17 -50 9
-5 11 -10 4 -10 -6 0 -10 -9 -8 -20 2 -11 -1 -20 -6 -20 -6 0 -7 -4 -4 -10 3
-5 1 -10 -5 -10 -6 0 -8 -4 -5 -10 3 -5 -5 -15 -19 -21 -28 -13 -39 -42 -22
-60 8 -9 7 -10 -7 -6 -11 4 -16 3 -12 -3 3 -6 2 -10 -2 -10 -5 0 -9 -9 -10
-21 -1 -15 2 -19 13 -15 9 3 18 6 21 6 3 0 -1 8 -8 17 -12 15 -12 16 4 10 10
-4 16 -3 12 2 -3 5 1 12 7 14 10 4 10 6 1 6 -7 1 -13 5 -13 10 0 5 7 8 16 7 9
0 19 6 21 14 4 12 3 12 -5 1 -6 -8 -12 -9 -16 -3 -3 6 2 13 13 17 20 6 33 32
52 105 6 24 21 65 34 90 28 56 34 178 11 212 -10 14 -13 34 -10 62 5 33 2 45
-15 60 -12 11 -21 31 -21 48 0 48 -27 97 -64 119 -36 21 -42 35 -61 127 -8 38
-23 48 -90 57 -27 3 -67 13 -88 21 -63 24 -97 18 -155 -26z m98 17 c0 -2 -10
-12 -21 -23 -22 -19 -22 -19 -8 4 12 19 29 30 29 19z m53 -21 c7 4 1 -5 -12
-19 -32 -36 -35 -72 -8 -99 12 -11 16 -18 10 -14 -24 13 -13 -2 13 -19 29 -19
67 -29 59 -14 -4 5 1 9 9 9 19 0 10 28 -16 51 -22 20 -24 37 -3 19 9 -7 19
-10 22 -6 4 4 2 11 -5 15 -10 6 -10 11 3 21 12 10 15 10 15 0 0 -9 3 -10 14
-1 11 9 15 8 21 -6 5 -10 7 -21 7 -25 -1 -5 2 -8 8 -8 6 0 10 -7 10 -16 0 -9
5 -12 12 -8 7 4 8 3 4 -4 -4 -7 -2 -12 3 -12 6 0 11 -7 11 -15 0 -8 -7 -15
-16 -15 -9 0 -14 6 -11 13 2 7 -4 23 -14 36 -11 13 -19 20 -19 17 0 -4 -5 -4
-10 -1 -8 5 -7 11 1 21 8 10 8 14 1 14 -6 0 -16 -9 -22 -19 -12 -24 -13 -34
-1 -26 5 3 13 0 17 -6 5 -8 3 -9 -6 -4 -9 5 -11 4 -6 -3 4 -7 13 -12 21 -12 8
0 17 -5 20 -10 4 -6 3 -9 -2 -8 -4 1 -18 -3 -30 -10 -23 -13 -22 -47 3 -56 19
-7 18 -23 -1 -23 -8 0 -15 5 -15 10 0 5 -6 7 -14 4 -8 -3 -20 1 -27 9 -6 8
-17 13 -23 11 -12 -4 -45 35 -66 78 -22 45 -46 75 -55 67 -3 -4 -5 0 -3 8 2 8
-3 14 -9 13 -7 -2 -13 2 -13 8 0 5 -6 7 -12 3 -9 -5 -9 -3 1 9 12 16 16 15 43
-8 16 -14 34 -22 40 -19 7 5 5 11 -5 19 -14 10 -14 14 6 33 18 19 23 20 30 7
4 -9 14 -12 20 -9z m20 -21 c-10 -13 -22 -25 -26 -25 -4 0 0 11 10 25 10 13
22 25 26 25 4 0 0 -11 -10 -25z m27 1 c0 -2 -8 -10 -17 -17 -16 -13 -17 -12
-4 4 13 16 21 21 21 13z m60 0 c0 -3 -4 -8 -10 -11 -5 -3 -10 -1 -10 4 0 6 5
11 10 11 6 0 10 -2 10 -4z m-40 -21 c-7 -9 -15 -13 -17 -11 -7 7 7 26 19 26 6
0 6 -6 -2 -15z m88 -10 c11 -23 10 -24 -8 -13 -10 7 -17 15 -14 19 2 4 -2 10
-8 12 -9 4 -8 6 3 6 9 1 21 -10 27 -24z m-146 -44 c-1 -6 9 -17 23 -23 14 -6
25 -15 25 -20 0 -15 -17 -9 -44 17 -27 25 -35 50 -13 42 6 -2 11 -10 9 -16z
m-142 -46 c6 -8 13 -22 15 -32 2 -10 4 -19 4 -20 1 -2 0 -5 -1 -7 -2 -3 8 -17
22 -32 14 -15 18 -23 10 -19 -8 5 -3 -4 13 -20 15 -15 30 -25 34 -22 3 4 13 1
21 -6 13 -10 14 -9 7 3 -7 12 -6 13 6 4 8 -6 22 -12 32 -13 9 -1 26 -2 37 -3
11 -1 20 -6 20 -9 0 -4 9 -11 20 -14 11 -3 20 -11 20 -17 0 -6 8 -20 18 -31 9
-11 11 -17 4 -13 -9 6 -11 1 -8 -18 3 -14 0 -28 -5 -31 -5 -4 -9 -2 -9 4 0 24
-75 67 -130 75 -9 1 -20 5 -27 9 -6 4 -30 9 -54 11 -24 3 -44 5 -44 6 0 1 -7
3 -15 5 -44 8 -95 41 -96 62 -1 12 -4 28 -7 36 -3 8 4 24 16 34 30 27 56 60
52 65 -2 2 4 4 15 5 10 1 24 -5 30 -12z m275 -46 c4 -11 5 -23 2 -26 -8 -7
-47 16 -47 29 0 6 9 3 20 -7 21 -19 28 -7 8 13 -9 9 -9 12 -1 12 7 0 15 -9 18
-21z m95 -46 c0 -4 7 -14 16 -24 9 -10 11 -19 5 -23 -12 -8 -83 83 -75 96 5 8
54 -36 54 -49z m-50 -7 c0 -8 13 -27 28 -43 30 -30 52 -79 45 -101 -8 -22 -23
-1 -23 32 0 34 -21 63 -39 52 -5 -4 -24 7 -42 24 l-33 29 25 10 c33 14 39 13
39 -3z m125 -181 c0 -32 -6 -48 -19 -58 -11 -8 -16 -19 -12 -25 4 -7 2 -10 -7
-6 -17 6 -17 64 0 64 8 0 10 -7 6 -17 -6 -16 -5 -16 10 -4 9 7 14 18 10 25
-16 24 -13 66 4 66 4 0 8 -20 8 -45z m-80 5 c3 -5 1 -10 -4 -10 -6 0 -11 5
-11 10 0 6 2 10 4 10 3 0 8 -4 11 -10z m36 -7 c13 -16 12 -17 -3 -4 -17 13
-22 21 -14 21 2 0 10 -8 17 -17z m-24 -43 c2 -27 0 -29 -17 -18 -10 7 -16 16
-14 20 3 4 -1 8 -8 9 -7 1 -2 5 12 9 14 4 25 8 25 9 0 1 1 -12 2 -29z m86 -21
c-6 -6 -9 -18 -6 -25 3 -8 1 -14 -4 -14 -13 0 -12 33 1 42 17 11 21 9 9 -3z
m-78 -40 c-4 -5 -2 -9 4 -9 5 0 9 -9 8 -20 -1 -13 -6 -19 -15 -15 -7 2 -10 0
-7 -5 3 -6 1 -10 -5 -10 -13 0 -10 51 3 61 5 3 0 9 -11 11 -14 4 -19 0 -18
-15 1 -12 -6 -21 -17 -23 -11 -1 -16 0 -13 3 3 4 0 13 -6 21 -10 11 -9 17 5
27 15 11 23 10 48 -2 16 -8 27 -19 24 -24z m50 -40 c4 -22 4 -43 1 -46 -9 -10
-13 -1 -19 45 -7 54 9 55 18 1z m38 5 c-7 -3 -9 -13 -6 -22 4 -14 3 -14 -5 -2
-12 16 -7 30 11 29 9 0 9 -2 0 -5z m-70 -38 c6 -15 -1 -26 -16 -26 -5 0 -7 7
-4 14 4 11 1 13 -11 10 -14 -5 -15 -4 -2 5 20 14 27 14 33 -3z m53 -51 c-6
-19 -14 -35 -18 -35 -4 0 -3 11 2 25 5 14 7 25 4 25 -3 0 -2 5 1 10 14 23 21
7 11 -25z m-39 -1 c-9 -9 -28 6 -21 18 4 6 10 6 17 -1 6 -6 8 -13 4 -17z m8
-44 c3 -5 1 -10 -4 -10 -6 0 -11 5 -11 10 0 6 2 10 4 10 3 0 8 -4 11 -10z m0
-29 c3 -5 2 -12 -3 -15 -5 -3 -9 1 -9 9 0 17 3 19 12 6z"/>
<path d="M2493 1073 c4 -3 1 -13 -6 -22 -11 -14 -10 -14 5 -2 16 12 16 31 1
31 -4 0 -3 -3 0 -7z"/>
<path d="M2260 1091 c-43 -4 -93 -14 -117 -26 -42 -20 -55 -35 -30 -35 40 0
189 31 216 44 32 17 40 27 19 24 -7 -1 -47 -4 -88 -7z"/>
<path d="M2242 970 c0 -14 2 -19 5 -12 2 6 2 18 0 25 -3 6 -5 1 -5 -13z"/>
<path d="M2490 846 c0 -2 7 -9 15 -16 9 -7 15 -8 15 -2 0 5 -7 12 -15 16 -8 3
-15 4 -15 2z"/>
<path d="M2770 279 c-18 -33 -20 -59 -5 -53 7 3 12 14 10 25 -2 10 1 19 6 19
6 0 8 4 5 9 -4 5 0 12 6 14 10 4 10 6 1 6 -7 1 -17 -8 -23 -20z"/>
<path d="M2334 3821 c21 -23 26 -26 26 -11 0 5 -10 15 -22 21 -23 12 -23 12
-4 -10z"/>
<path d="M2575 3417 c7 -16 37 -19 32 -3 -2 6 -11 12 -20 14 -11 2 -15 -1 -12
-11z"/>
</g>
</svg>
